%TF.GenerationSoftware,KiCad,Pcbnew,10.0.3*%
%TF.CreationDate,2026-06-15T09:03:05+02:00*%
%TF.ProjectId,schnupperuebung,7363686e-7570-4706-9572-756562756e67,1.0*%
%TF.SameCoordinates,Original*%
%TF.FileFunction,Copper,L1,Top*%
%TF.FilePolarity,Positive*%
%FSLAX46Y46*%
G04 Gerber Fmt 4.6, Leading zero omitted, Abs format (unit mm)*
G04 Created by KiCad (PCBNEW 10.0.3) date 2026-06-15 09:03:05*
%MOMM*%
%LPD*%
G01*
G04 APERTURE LIST*
G04 Aperture macros list*
%AMRoundRect*
0 Rectangle with rounded corners*
0 $1 Rounding radius*
0 $2 $3 $4 $5 $6 $7 $8 $9 X,Y pos of 4 corners*
0 Add a 4 corners polygon primitive as box body*
4,1,4,$2,$3,$4,$5,$6,$7,$8,$9,$2,$3,0*
0 Add four circle primitives for the rounded corners*
1,1,$1+$1,$2,$3*
1,1,$1+$1,$4,$5*
1,1,$1+$1,$6,$7*
1,1,$1+$1,$8,$9*
0 Add four rect primitives between the rounded corners*
20,1,$1+$1,$2,$3,$4,$5,0*
20,1,$1+$1,$4,$5,$6,$7,0*
20,1,$1+$1,$6,$7,$8,$9,0*
20,1,$1+$1,$8,$9,$2,$3,0*%
G04 Aperture macros list end*
%ADD10C,0.300000*%
%TA.AperFunction,NonConductor*%
%ADD11C,0.300000*%
%TD*%
%TA.AperFunction,SMDPad,CuDef*%
%ADD12RoundRect,0.350000X2.650000X0.350000X-2.650000X0.350000X-2.650000X-0.350000X2.650000X-0.350000X0*%
%TD*%
%TA.AperFunction,SMDPad,CuDef*%
%ADD13RoundRect,0.250000X-0.350000X-0.450000X0.350000X-0.450000X0.350000X0.450000X-0.350000X0.450000X0*%
%TD*%
%TA.AperFunction,ComponentPad*%
%ADD14C,2.000000*%
%TD*%
%TA.AperFunction,SMDPad,CuDef*%
%ADD15RoundRect,0.175000X1.335000X-0.175000X1.335000X0.175000X-1.335000X0.175000X-1.335000X-0.175000X0*%
%TD*%
%TA.AperFunction,SMDPad,CuDef*%
%ADD16RoundRect,0.190000X-1.320000X0.190000X-1.320000X-0.190000X1.320000X-0.190000X1.320000X0.190000X0*%
%TD*%
%TA.AperFunction,SMDPad,CuDef*%
%ADD17RoundRect,0.200000X-1.310000X0.200000X-1.310000X-0.200000X1.310000X-0.200000X1.310000X0.200000X0*%
%TD*%
%TA.AperFunction,SMDPad,CuDef*%
%ADD18RoundRect,0.175000X-1.335000X0.175000X-1.335000X-0.175000X1.335000X-0.175000X1.335000X0.175000X0*%
%TD*%
%TA.AperFunction,SMDPad,CuDef*%
%ADD19RoundRect,0.190000X1.320000X-0.190000X1.320000X0.190000X-1.320000X0.190000X-1.320000X-0.190000X0*%
%TD*%
%TA.AperFunction,SMDPad,CuDef*%
%ADD20RoundRect,0.162500X1.347500X-0.162500X1.347500X0.162500X-1.347500X0.162500X-1.347500X-0.162500X0*%
%TD*%
%TA.AperFunction,ComponentPad*%
%ADD21O,1.700000X1.100000*%
%TD*%
%TA.AperFunction,ViaPad*%
%ADD22C,1.600000*%
%TD*%
%TA.AperFunction,Conductor*%
%ADD23C,0.400000*%
%TD*%
G04 APERTURE END LIST*
D10*
D11*
X85700837Y-60306123D02*
X86125101Y-60730388D01*
X85640227Y-61578916D02*
X85034136Y-60972824D01*
X85034136Y-60972824D02*
X86306928Y-59700032D01*
X86306928Y-59700032D02*
X86913020Y-60306123D01*
X86367537Y-62306225D02*
X86306928Y-62124398D01*
X86306928Y-62124398D02*
X86367537Y-61942570D01*
X86367537Y-61942570D02*
X87458502Y-60851606D01*
X87397892Y-63215362D02*
X87216065Y-63154753D01*
X87216065Y-63154753D02*
X86973628Y-62912317D01*
X86973628Y-62912317D02*
X86913019Y-62730489D01*
X86913019Y-62730489D02*
X86973628Y-62548662D01*
X86973628Y-62548662D02*
X87458502Y-62063788D01*
X87458502Y-62063788D02*
X87640329Y-62003179D01*
X87640329Y-62003179D02*
X87822157Y-62063788D01*
X87822157Y-62063788D02*
X88064593Y-62306225D01*
X88064593Y-62306225D02*
X88125202Y-62488053D01*
X88125202Y-62488053D02*
X88064593Y-62669880D01*
X88064593Y-62669880D02*
X87943375Y-62791098D01*
X87943375Y-62791098D02*
X87216065Y-62306225D01*
X87943375Y-63882063D02*
X89216167Y-62609271D01*
X88549466Y-63518408D02*
X88428248Y-64366936D01*
X89276776Y-63518408D02*
X88307030Y-63518408D01*
X89640431Y-63882063D02*
X90125304Y-64366936D01*
X90246523Y-63639626D02*
X89155558Y-64730591D01*
X89155558Y-64730591D02*
X89094949Y-64912419D01*
X89094949Y-64912419D02*
X89155558Y-65094246D01*
X89155558Y-65094246D02*
X89276776Y-65215464D01*
X89701040Y-65639728D02*
X90549568Y-64791200D01*
X90307131Y-65033637D02*
X90488959Y-64973027D01*
X90488959Y-64973027D02*
X90610177Y-64973027D01*
X90610177Y-64973027D02*
X90792005Y-65033637D01*
X90792005Y-65033637D02*
X90913223Y-65154855D01*
X90670787Y-66609475D02*
X90610177Y-66427647D01*
X90610177Y-66427647D02*
X90610177Y-66306429D01*
X90610177Y-66306429D02*
X90670787Y-66124602D01*
X90670787Y-66124602D02*
X91034442Y-65760947D01*
X91034442Y-65760947D02*
X91216269Y-65700338D01*
X91216269Y-65700338D02*
X91337487Y-65700338D01*
X91337487Y-65700338D02*
X91519315Y-65760947D01*
X91519315Y-65760947D02*
X91701142Y-65942774D01*
X91701142Y-65942774D02*
X91761751Y-66124602D01*
X91761751Y-66124602D02*
X91761751Y-66245820D01*
X91761751Y-66245820D02*
X91701142Y-66427647D01*
X91701142Y-66427647D02*
X91337487Y-66791302D01*
X91337487Y-66791302D02*
X91155660Y-66851911D01*
X91155660Y-66851911D02*
X91034442Y-66851911D01*
X91034442Y-66851911D02*
X90852614Y-66791302D01*
X90852614Y-66791302D02*
X90670787Y-66609475D01*
X92489061Y-66730693D02*
X91640533Y-67579221D01*
X92367843Y-66851911D02*
X92489061Y-66851911D01*
X92489061Y-66851911D02*
X92670888Y-66912520D01*
X92670888Y-66912520D02*
X92852716Y-67094348D01*
X92852716Y-67094348D02*
X92913325Y-67276175D01*
X92913325Y-67276175D02*
X92852716Y-67458003D01*
X92852716Y-67458003D02*
X92186015Y-68124703D01*
X92792106Y-68730795D02*
X93640634Y-67882266D01*
X94064899Y-67458002D02*
X93943680Y-67458002D01*
X93943680Y-67458002D02*
X93943680Y-67579221D01*
X93943680Y-67579221D02*
X94064899Y-67579221D01*
X94064899Y-67579221D02*
X94064899Y-67458002D01*
X94064899Y-67458002D02*
X93943680Y-67579221D01*
X93398198Y-69336886D02*
X94670990Y-68064094D01*
X94004289Y-68973231D02*
X93883071Y-69821759D01*
X94731599Y-68973231D02*
X93761853Y-68973231D01*
X96792311Y-71518816D02*
X96792311Y-71397598D01*
X96792311Y-71397598D02*
X96731702Y-71215770D01*
X96731702Y-71215770D02*
X96610483Y-71094552D01*
X96610483Y-71094552D02*
X96428656Y-71033943D01*
X96428656Y-71033943D02*
X96307438Y-71033943D01*
X96307438Y-71033943D02*
X96125610Y-71094552D01*
X96125610Y-71094552D02*
X96004392Y-71215770D01*
X96004392Y-71215770D02*
X95943783Y-71397598D01*
X95943783Y-71397598D02*
X95943783Y-71518816D01*
X95943783Y-71518816D02*
X96004392Y-71700644D01*
X96004392Y-71700644D02*
X96125610Y-71821862D01*
X96125610Y-71821862D02*
X96307438Y-71882471D01*
X96307438Y-71882471D02*
X96428656Y-71882471D01*
X96913529Y-71397598D02*
X96428656Y-71882471D01*
X96428656Y-71882471D02*
X96428656Y-72003689D01*
X96428656Y-72003689D02*
X96489265Y-72064298D01*
X96489265Y-72064298D02*
X96671093Y-72124908D01*
X96671093Y-72124908D02*
X96852920Y-72064298D01*
X96852920Y-72064298D02*
X97155966Y-71761253D01*
X97155966Y-71761253D02*
X97216575Y-71458207D01*
X97216575Y-71458207D02*
X97155966Y-71155161D01*
X97155966Y-71155161D02*
X96974138Y-70852115D01*
X96974138Y-70852115D02*
X96671093Y-70670288D01*
X96671093Y-70670288D02*
X96368047Y-70609679D01*
X96368047Y-70609679D02*
X96065001Y-70670288D01*
X96065001Y-70670288D02*
X95761955Y-70852115D01*
X95761955Y-70852115D02*
X95580128Y-71155161D01*
X95580128Y-71155161D02*
X95519519Y-71458207D01*
X95519519Y-71458207D02*
X95580128Y-71761253D01*
X95580128Y-71761253D02*
X95761955Y-72064298D01*
X95761955Y-72064298D02*
X96065001Y-72246126D01*
X96065001Y-72246126D02*
X96368047Y-72306735D01*
X98004494Y-73943183D02*
X99277287Y-72670390D01*
X98671195Y-73276482D02*
X99398505Y-74003792D01*
X98731804Y-74670493D02*
X100004597Y-73397700D01*
X100428860Y-73821964D02*
X101156170Y-74549274D01*
X99519723Y-75458411D02*
X100792515Y-74185619D01*
X100913734Y-76852422D02*
X100307642Y-76246331D01*
X100307642Y-76246331D02*
X101580435Y-74973538D01*
X102307745Y-78125215D02*
X102428963Y-78367651D01*
X102428963Y-78367651D02*
X102732009Y-78670697D01*
X102732009Y-78670697D02*
X102913836Y-78731306D01*
X102913836Y-78731306D02*
X103035055Y-78731306D01*
X103035055Y-78731306D02*
X103216882Y-78670697D01*
X103216882Y-78670697D02*
X103338100Y-78549479D01*
X103338100Y-78549479D02*
X103398710Y-78367651D01*
X103398710Y-78367651D02*
X103398710Y-78246433D01*
X103398710Y-78246433D02*
X103338100Y-78064606D01*
X103338100Y-78064606D02*
X103156273Y-77761560D01*
X103156273Y-77761560D02*
X103095664Y-77579732D01*
X103095664Y-77579732D02*
X103095664Y-77458514D01*
X103095664Y-77458514D02*
X103156273Y-77276687D01*
X103156273Y-77276687D02*
X103277491Y-77155468D01*
X103277491Y-77155468D02*
X103459319Y-77094859D01*
X103459319Y-77094859D02*
X103580537Y-77094859D01*
X103580537Y-77094859D02*
X103762364Y-77155468D01*
X103762364Y-77155468D02*
X104065410Y-77458514D01*
X104065410Y-77458514D02*
X104186629Y-77700951D01*
X104186629Y-78428261D02*
X104671502Y-78913134D01*
X104792720Y-78185824D02*
X103701756Y-79276789D01*
X103701756Y-79276789D02*
X103641146Y-79458616D01*
X103641146Y-79458616D02*
X103701756Y-79640444D01*
X103701756Y-79640444D02*
X103822974Y-79761662D01*
X104792720Y-80610190D02*
X104610893Y-80549581D01*
X104610893Y-80549581D02*
X104368456Y-80307144D01*
X104368456Y-80307144D02*
X104307847Y-80125317D01*
X104307847Y-80125317D02*
X104368456Y-79943489D01*
X104368456Y-79943489D02*
X104853329Y-79458616D01*
X104853329Y-79458616D02*
X105035157Y-79398007D01*
X105035157Y-79398007D02*
X105216984Y-79458616D01*
X105216984Y-79458616D02*
X105459421Y-79701053D01*
X105459421Y-79701053D02*
X105520030Y-79882880D01*
X105520030Y-79882880D02*
X105459421Y-80064708D01*
X105459421Y-80064708D02*
X105338202Y-80185926D01*
X105338202Y-80185926D02*
X104610893Y-79701053D01*
X106065512Y-80307144D02*
X105520030Y-81458718D01*
X106671604Y-80913236D02*
X105520030Y-81458718D01*
X105520030Y-81458718D02*
X105095766Y-81640545D01*
X105095766Y-81640545D02*
X104974547Y-81640545D01*
X104974547Y-81640545D02*
X104792720Y-81579936D01*
X106307949Y-82246637D02*
X107156477Y-81398109D01*
X106914041Y-81640546D02*
X107095868Y-81579937D01*
X107095868Y-81579937D02*
X107217086Y-81579937D01*
X107217086Y-81579937D02*
X107398914Y-81640546D01*
X107398914Y-81640546D02*
X107520132Y-81761764D01*
D12*
%TO.P,D1,1,K_1*%
%TO.N,GND*%
X108918484Y-58197015D03*
%TD*%
D13*
%TO.P,R2,1*%
%TO.N,GND*%
X96974734Y-67917015D03*
%TO.P,R2,2*%
%TO.N,Net-(J3-CC1)*%
X98974734Y-67917015D03*
%TD*%
D14*
%TO.P,R1,1*%
%TO.N,Net-(D1-A)*%
X107544734Y-55697015D03*
%TO.P,R1,2*%
%TO.N,VBUS*%
X92304734Y-55697015D03*
%TD*%
D13*
%TO.P,R3,1*%
%TO.N,GND*%
X96974734Y-66007015D03*
%TO.P,R3,2*%
%TO.N,Net-(J3-CC2)*%
X98974734Y-66007015D03*
%TD*%
D15*
%TO.P,J3,A5,CC1_A5*%
%TO.N,Net-(J3-CC1)*%
X106224734Y-67627015D03*
D16*
%TO.P,J3,A9,VBUS_A9*%
%TO.N,VBUS*%
X106224734Y-65607015D03*
D17*
%TO.P,J3,A12,GND_A12*%
%TO.N,GND*%
X106224734Y-64377015D03*
D18*
%TO.P,J3,B5,CC2_B5*%
%TO.N,Net-(J3-CC2)*%
X106224734Y-66627015D03*
D19*
%TO.P,J3,B9,VBUS_B9*%
%TO.N,VBUS*%
X106224734Y-68647015D03*
D20*
%TO.P,J3,B12,GND_B12*%
%TO.N,GND*%
X106224734Y-69952015D03*
D21*
%TO.P,J3,S1,SHIELD_S1*%
X107214734Y-71447015D03*
X111014734Y-71447015D03*
X107214734Y-62807015D03*
X111014734Y-62807015D03*
%TD*%
D22*
%TO.N,Net-(D1-A)*%
X103674734Y-58197015D03*
%TD*%
%TO.N,GND*%
D23*
X106694734Y-64267015D02*
X103114734Y-64267015D01*
X102354734Y-63507015D02*
X102354734Y-60907015D01*
X111014734Y-71447015D02*
X107214734Y-71447015D01*
X111014734Y-62807015D02*
X111014734Y-71447015D01*
X102354734Y-60907015D02*
X103064734Y-60197015D01*
X106224734Y-70457015D02*
X107214734Y-71447015D01*
X109808484Y-59513265D02*
X109808484Y-58197015D01*
X96974734Y-66007015D02*
X96974734Y-67917015D01*
X96974734Y-69367015D02*
X97449734Y-69842015D01*
X96974734Y-67917015D02*
X96974734Y-69367015D01*
X103064734Y-60197015D02*
X109124734Y-60197015D01*
X97449734Y-69842015D02*
X105184734Y-69842015D01*
X106694733Y-69842015D02*
X105184734Y-69842015D01*
X106224734Y-69952015D02*
X106224734Y-70457015D01*
X103114734Y-64267015D02*
X102354734Y-63507015D01*
X106224734Y-64377015D02*
X106224734Y-63797015D01*
X109124734Y-60197015D02*
X109808484Y-59513265D01*
X106224734Y-63797015D02*
X107214734Y-62807015D01*
X107214734Y-62807015D02*
X111014734Y-62807015D01*
%TO.N,Net-(D1-A)*%
X103604734Y-58127015D02*
X103674734Y-58197015D01*
X107544734Y-55697015D02*
X104924734Y-55697015D01*
X103674734Y-56947015D02*
X103674734Y-58197015D01*
X104924734Y-55697015D02*
X103674734Y-56947015D01*
%TO.N,Net-(J3-CC1)*%
X106094734Y-67517015D02*
X105494734Y-67517015D01*
X99374734Y-67517015D02*
X105184734Y-67517015D01*
X98974734Y-67917015D02*
X99374734Y-67517015D01*
%TO.N,VBUS*%
X106224734Y-65607015D02*
X108364734Y-65607015D01*
X108774734Y-68277015D02*
X108404734Y-68647015D01*
X108404734Y-68647015D02*
X106224734Y-68647015D01*
X106492756Y-65497015D02*
X100914734Y-65497015D01*
X106435470Y-68606279D02*
X105253998Y-68606279D01*
X92304734Y-56887015D02*
X92304734Y-55697015D01*
X108774734Y-66017015D02*
X108774734Y-68277015D01*
X100914734Y-65497015D02*
X92304734Y-56887015D01*
X108364734Y-65607015D02*
X108774734Y-66017015D01*
%TO.N,Net-(J3-CC2)*%
X99484734Y-66517015D02*
X98974734Y-66007015D01*
X106094734Y-66517015D02*
X99484734Y-66517015D01*
%TD*%
M02*
