  0
SECTION
  2
HEADER
  9
$ANGBASE
  50
0.0
  9
$ANGDIR
  70
1
  9
$MEASUREMENT
  70
1
  9
$INSUNITS
  70
4
  0
ENDSEC
  0
SECTION
  2
TABLES
  0
TABLE
  2
LTYPE
  70
4
  0
LTYPE
  5
40F
  2
CONTINUOUS
  70
0
  3
Solid line
  72
65
  73
0
  40
0.0
  0
LTYPE
  5
410
  2
DASHDOT
 70
0
  3
Dash Dot ____ _ ____ _
 72
65
 73
4
 40
2.0
 49
1.25
 49
-0.25
 49
0.25
 49
-0.25
  0
LTYPE
  5
411
  2
DASHED
 70
0
  3
Dashed __ __ __ __ __
 72
65
 73
2
 40
0.75
 49
0.5
 49
-0.25
  0
LTYPE
  5
43B
  2
DOTTED
 70
0
  3
Dotted .  .  .  .
 72
65
 73
2
 40
0.2
 49
0.0
 49
-0.2
  0
ENDTAB
  0
TABLE
  2
STYLE
  70
4
  0
STYLE
  2
KICAD
  70
0
  40
0
  41
1
  42
1
  50
0
  71
0
  3
isocp.shx
  0
STYLE
  2
KICADB
  70
0
  40
0
  41
1
  42
1
  50
0
  71
0
  3
isocp.shx
  0
STYLE
  2
KICADI
  70
0
  40
0
  41
1
  42
1
  50
15
  71
0
  3
isocp.shx
  0
STYLE
  2
KICADBI
  70
0
  40
0
  41
1
  42
1
  50
15
  71
0
  3
isocp.shx
  0
ENDTAB
  0
TABLE
  2
LAYER
  70
4
  0
LAYER
  2
F.Cu
  70
0
  62
13
  420
13120564
  6
CONTINUOUS
  0
LAYER
  2
B.Cu
  70
0
  62
153
  420
5078980
  6
CONTINUOUS
  0
LAYER
  2
F.Paste
  70
0
  62
253
  420
11837594
  6
CONTINUOUS
  0
LAYER
  2
Edge.Cuts
  70
0
  62
254
  420
13685453
  6
CONTINUOUS
  0
ENDTAB
  0
ENDSEC
  0
SECTION
  2
ENTITIES
0
LINE
8
Edge.Cuts
6
CONTINUOUS
10
86.421960999999996
20
-52.6319409999999976
11
86.683328000000003
21
-52.6885739999999956
0
LINE
8
Edge.Cuts
6
CONTINUOUS
10
86.683328000000003
20
-52.6885739999999956
11
86.9349519999999956
21
-52.7791549999999958
0
LINE
8
Edge.Cuts
6
CONTINUOUS
10
86.9349519999999956
20
-52.7791549999999958
11
87.1724449999999962
21
-52.9021049999999988
0
LINE
8
Edge.Cuts
6
CONTINUOUS
10
87.1724449999999962
20
-52.9021049999999988
11
87.391664999999989
21
-53.0552779999999942
0
LINE
8
Edge.Cuts
6
CONTINUOUS
10
87.391664999999989
20
-53.0552779999999942
11
87.586748
21
-53.2341319999999953
0
LINE
8
Edge.Cuts
6
CONTINUOUS
10
87.586748
20
-53.2341319999999953
11
87.5868830000000003
21
-53.2342069999999978
0
LINE
8
Edge.Cuts
6
CONTINUOUS
10
87.5868830000000003
20
-53.2342069999999978
11
88.6339059999999961
21
-54.1220149999999975
0
LINE
8
Edge.Cuts
6
CONTINUOUS
10
88.6339059999999961
20
-54.1220149999999975
11
111.6247339999999895
21
-54.1220149999999975
0
LINE
8
Edge.Cuts
6
CONTINUOUS
10
111.6247339999999895
20
-54.1220149999999975
11
111.8890499999999975
21
-54.1393389999999997
0
LINE
8
Edge.Cuts
6
CONTINUOUS
10
111.8890499999999975
20
-54.1393389999999997
11
112.1488429999999994
21
-54.1910150000000002
0
LINE
8
Edge.Cuts
6
CONTINUOUS
10
112.1488429999999994
20
-54.1910150000000002
11
112.3996679999999913
21
-54.2761589999999998
0
LINE
8
Edge.Cuts
6
CONTINUOUS
10
112.3996679999999913
20
-54.2761589999999998
11
112.6372339999999923
21
-54.3933129999999991
0
LINE
8
Edge.Cuts
6
CONTINUOUS
10
112.6372339999999923
20
-54.3933129999999991
11
112.8574759999999912
21
-54.5404739999999961
0
LINE
8
Edge.Cuts
6
CONTINUOUS
10
112.8574759999999912
20
-54.5404739999999961
11
113.0566259999999943
21
-54.7151229999999984
0
LINE
8
Edge.Cuts
6
CONTINUOUS
10
113.0566259999999943
20
-54.7151229999999984
11
113.2312749999999966
21
-54.9142729999999943
0
LINE
8
Edge.Cuts
6
CONTINUOUS
10
113.2312749999999966
20
-54.9142729999999943
11
113.3784359999999936
21
-55.1345150000000004
0
LINE
8
Edge.Cuts
6
CONTINUOUS
10
113.3784359999999936
20
-55.1345150000000004
11
113.4955899999999929
21
-55.3720809999999943
0
LINE
8
Edge.Cuts
6
CONTINUOUS
10
113.4955899999999929
20
-55.3720809999999943
11
113.5807339999999925
21
-55.6229060000000004
0
LINE
8
Edge.Cuts
6
CONTINUOUS
10
113.5807339999999925
20
-55.6229060000000004
11
113.632409999999993
21
-55.8826989999999952
0
LINE
8
Edge.Cuts
6
CONTINUOUS
10
113.632409999999993
20
-55.8826989999999952
11
113.6497339999999951
21
-56.1470149999999961
0
LINE
8
Edge.Cuts
6
CONTINUOUS
10
113.6497339999999951
20
-56.1470149999999961
11
113.6497339999999951
21
-80.8970149999999961
0
LINE
8
Edge.Cuts
6
CONTINUOUS
10
113.6497339999999951
20
-80.8970149999999961
11
113.632409999999993
21
-81.1613309999999899
0
LINE
8
Edge.Cuts
6
CONTINUOUS
10
113.632409999999993
20
-81.1613309999999899
11
113.5807339999999925
21
-81.4211239999999918
0
LINE
8
Edge.Cuts
6
CONTINUOUS
10
113.5807339999999925
20
-81.4211239999999918
11
113.4955899999999929
21
-81.6719489999999979
0
LINE
8
Edge.Cuts
6
CONTINUOUS
10
113.4955899999999929
20
-81.6719489999999979
11
113.3784359999999936
21
-81.909514999999999
0
LINE
8
Edge.Cuts
6
CONTINUOUS
10
113.3784359999999936
20
-81.909514999999999
11
113.2312749999999966
21
-82.1297569999999979
0
LINE
8
Edge.Cuts
6
CONTINUOUS
10
113.2312749999999966
20
-82.1297569999999979
11
113.0566259999999943
21
-82.3289070000000009
0
LINE
8
Edge.Cuts
6
CONTINUOUS
10
113.0566259999999943
20
-82.3289070000000009
11
112.8574759999999912
21
-82.5035560000000032
0
LINE
8
Edge.Cuts
6
CONTINUOUS
10
112.8574759999999912
20
-82.5035560000000032
11
112.6372339999999923
21
-82.6507170000000002
0
LINE
8
Edge.Cuts
6
CONTINUOUS
10
112.6372339999999923
20
-82.6507170000000002
11
112.3996679999999913
21
-82.7678709999999995
0
LINE
8
Edge.Cuts
6
CONTINUOUS
10
112.3996679999999913
20
-82.7678709999999995
11
112.1488429999999994
21
-82.8530149999999992
0
LINE
8
Edge.Cuts
6
CONTINUOUS
10
112.1488429999999994
20
-82.8530149999999992
11
111.8890499999999975
21
-82.9046909999999997
0
LINE
8
Edge.Cuts
6
CONTINUOUS
10
111.8890499999999975
20
-82.9046909999999997
11
111.6247339999999895
21
-82.9220150000000018
0
LINE
8
Edge.Cuts
6
CONTINUOUS
10
111.6247339999999895
20
-82.9220150000000018
11
90.6247339999999895
21
-82.9220150000000018
0
LINE
8
Edge.Cuts
6
CONTINUOUS
10
90.6247339999999895
20
-82.9220150000000018
11
90.3604179999999957
21
-82.9046909999999997
0
LINE
8
Edge.Cuts
6
CONTINUOUS
10
90.3604179999999957
20
-82.9046909999999997
11
90.1006249999999937
21
-82.8530149999999992
0
LINE
8
Edge.Cuts
6
CONTINUOUS
10
90.1006249999999937
20
-82.8530149999999992
11
89.8498000000000019
21
-82.7678709999999995
0
LINE
8
Edge.Cuts
6
CONTINUOUS
10
89.8498000000000019
20
-82.7678709999999995
11
89.6122340000000008
21
-82.6507170000000002
0
LINE
8
Edge.Cuts
6
CONTINUOUS
10
89.6122340000000008
20
-82.6507170000000002
11
89.3919920000000019
21
-82.5035560000000032
0
LINE
8
Edge.Cuts
6
CONTINUOUS
10
89.3919920000000019
20
-82.5035560000000032
11
89.1928419999999988
21
-82.3289070000000009
0
LINE
8
Edge.Cuts
6
CONTINUOUS
10
89.1928419999999988
20
-82.3289070000000009
11
89.0181929999999966
21
-82.1297569999999979
0
LINE
8
Edge.Cuts
6
CONTINUOUS
10
89.0181929999999966
20
-82.1297569999999979
11
88.8710319999999996
21
-81.909514999999999
0
LINE
8
Edge.Cuts
6
CONTINUOUS
10
88.8710319999999996
20
-81.909514999999999
11
88.7538780000000003
21
-81.6719489999999979
0
LINE
8
Edge.Cuts
6
CONTINUOUS
10
88.7538780000000003
20
-81.6719489999999979
11
88.6687340000000006
21
-81.4211239999999918
0
LINE
8
Edge.Cuts
6
CONTINUOUS
10
88.6687340000000006
20
-81.4211239999999918
11
88.6170580000000001
21
-81.1613309999999899
0
LINE
8
Edge.Cuts
6
CONTINUOUS
10
88.6170580000000001
20
-81.1613309999999899
11
88.599741999999992
21
-80.8971449999999948
0
LINE
8
Edge.Cuts
6
CONTINUOUS
10
88.599741999999992
20
-80.8971449999999948
11
88.599733999999998
21
-80.8971030000000013
0
LINE
8
Edge.Cuts
6
CONTINUOUS
10
88.599733999999998
20
-80.8971030000000013
11
88.594578999999996
21
-79.4421249999999901
0
LINE
8
Edge.Cuts
6
CONTINUOUS
10
88.594578999999996
20
-79.4421249999999901
11
86.1194909999999965
21
-79.4421249999999901
0
LINE
8
Edge.Cuts
6
CONTINUOUS
10
86.1194909999999965
20
-79.4421249999999901
11
86.1193990000000014
21
-79.4421059999999954
0
LINE
8
Edge.Cuts
6
CONTINUOUS
10
86.1193990000000014
20
-79.4421059999999954
11
86.1193420000000032
21
-79.4421249999999901
0
LINE
8
Edge.Cuts
6
CONTINUOUS
10
86.1193420000000032
20
-79.4421249999999901
11
85.8558999999999912
21
-79.4233490000000018
0
LINE
8
Edge.Cuts
6
CONTINUOUS
10
85.8558999999999912
20
-79.4233490000000018
11
85.5971359999999919
21
-79.3704759999999965
0
LINE
8
Edge.Cuts
6
CONTINUOUS
10
85.5971359999999919
20
-79.3704759999999965
11
85.3474439999999959
21
-79.284403999999995
0
LINE
8
Edge.Cuts
6
CONTINUOUS
10
85.3474439999999959
20
-79.284403999999995
11
85.1110639999999989
21
-79.1665950000000009
0
LINE
8
Edge.Cuts
6
CONTINUOUS
10
85.1110639999999989
20
-79.1665950000000009
11
84.8920109999999966
21
-79.019047999999998
0
LINE
8
Edge.Cuts
6
CONTINUOUS
10
84.8920109999999966
20
-79.019047999999998
11
84.694002999999995
21
-78.8442699999999945
0
LINE
8
Edge.Cuts
6
CONTINUOUS
10
84.694002999999995
20
-78.8442699999999945
11
84.5204030000000017
21
-78.645228000000003
0
LINE
8
Edge.Cuts
6
CONTINUOUS
10
84.5204030000000017
20
-78.645228000000003
11
84.3741599999999892
21
-78.4253029999999995
0
LINE
8
Edge.Cuts
6
CONTINUOUS
10
84.3741599999999892
20
-78.4253029999999995
11
84.2577560000000005
21
-78.1882279999999952
0
LINE
8
Edge.Cuts
6
CONTINUOUS
10
84.2577560000000005
20
-78.1882279999999952
11
84.1731679999999898
21
-77.9380290000000002
0
LINE
8
Edge.Cuts
6
CONTINUOUS
10
84.1731679999999898
20
-77.9380290000000002
11
84.1218319999999977
21
-77.6789559999999994
0
LINE
8
Edge.Cuts
6
CONTINUOUS
10
84.1218319999999977
20
-77.6789559999999994
11
84.1046209999999945
21
-77.4154059999999902
0
LINE
8
Edge.Cuts
6
CONTINUOUS
10
84.1046209999999945
20
-77.4154059999999902
11
84.1063729999999907
21
-77.4100119999999947
0
LINE
8
Edge.Cuts
6
CONTINUOUS
10
84.1063729999999907
20
-77.4100119999999947
11
84.099733999999998
21
-54.6349969999999985
0
LINE
8
Edge.Cuts
6
CONTINUOUS
10
84.099733999999998
20
-54.6349969999999985
11
84.099733999999998
21
-54.6349919999999969
0
LINE
8
Edge.Cuts
6
CONTINUOUS
10
84.099733999999998
20
-54.6349919999999969
11
84.099733999999998
21
-54.6349899999999948
0
LINE
8
Edge.Cuts
6
CONTINUOUS
10
84.099733999999998
20
-54.6349899999999948
11
84.1173979999999943
21
-54.3681419999999989
0
LINE
8
Edge.Cuts
6
CONTINUOUS
10
84.1173979999999943
20
-54.3681419999999989
11
84.170070999999993
21
-54.1059489999999954
0
LINE
8
Edge.Cuts
6
CONTINUOUS
10
84.170070999999993
20
-54.1059489999999954
11
84.2568359999999927
21
-53.8529839999999993
0
LINE
8
Edge.Cuts
6
CONTINUOUS
10
84.2568359999999927
20
-53.8529839999999993
11
84.3761789999999934
21
-53.6136580000000009
0
LINE
8
Edge.Cuts
6
CONTINUOUS
10
84.3761789999999934
20
-53.6136580000000009
11
84.5260189999999909
21
-53.3921459999999968
0
LINE
8
Edge.Cuts
6
CONTINUOUS
10
84.5260189999999909
20
-53.3921459999999968
11
84.7037419999999912
21
-53.1923099999999991
0
LINE
8
Edge.Cuts
6
CONTINUOUS
10
84.7037419999999912
20
-53.1923099999999991
11
84.9062479999999908
21
-53.0176370000000006
0
LINE
8
Edge.Cuts
6
CONTINUOUS
10
84.9062479999999908
20
-53.0176370000000006
11
85.130006999999992
21
-52.8711729999999989
0
LINE
8
Edge.Cuts
6
CONTINUOUS
10
85.130006999999992
20
-52.8711729999999989
11
85.3711139999999915
21
-52.7554719999999975
0
LINE
8
Edge.Cuts
6
CONTINUOUS
10
85.3711139999999915
20
-52.7554719999999975
11
85.6253659999999996
21
-52.672551999999996
0
LINE
8
Edge.Cuts
6
CONTINUOUS
10
85.6253659999999996
20
-52.672551999999996
11
85.8883269999999897
21
-52.6238589999999959
0
LINE
8
Edge.Cuts
6
CONTINUOUS
10
85.8883269999999897
20
-52.6238589999999959
11
86.1554119999999983
21
-52.610242999999997
0
LINE
8
Edge.Cuts
6
CONTINUOUS
10
86.1554119999999983
20
-52.610242999999997
11
86.421960999999996
21
-52.6319409999999976
0
LINE
8
Edge.Cuts
6
CONTINUOUS
10
85.7643739999999895
20
-52.6888569999999987
11
85.511059000000003
21
-52.7533169999999956
0
LINE
8
Edge.Cuts
6
CONTINUOUS
10
85.511059000000003
20
-52.7533169999999956
11
85.2684469999999948
21
-52.8505949999999984
0
LINE
8
Edge.Cuts
6
CONTINUOUS
10
85.2684469999999948
20
-52.8505949999999984
11
85.0407689999999974
21
-52.9789959999999951
0
LINE
8
Edge.Cuts
6
CONTINUOUS
10
85.0407689999999974
20
-52.9789959999999951
11
84.8319979999999987
21
-53.1362789999999947
0
LINE
8
Edge.Cuts
6
CONTINUOUS
10
84.8319979999999987
20
-53.1362789999999947
11
84.6457729999999913
21
-53.3197019999999995
0
LINE
8
Edge.Cuts
6
CONTINUOUS
10
84.6457729999999913
20
-53.3197019999999995
11
84.4853430000000003
21
-53.5260660000000001
0
LINE
8
Edge.Cuts
6
CONTINUOUS
10
84.4853430000000003
20
-53.5260660000000001
11
84.3535049999999984
21
-53.7517700000000005
0
LINE
8
Edge.Cuts
6
CONTINUOUS
10
84.3535049999999984
20
-53.7517700000000005
11
84.2525600000000026
21
-53.9928799999999995
0
LINE
8
Edge.Cuts
6
CONTINUOUS
10
84.2525600000000026
20
-53.9928799999999995
11
84.1842669999999913
21
-54.2451879999999989
0
LINE
8
Edge.Cuts
6
CONTINUOUS
10
84.1842669999999913
20
-54.2451879999999989
11
84.1498179999999962
21
-54.5042959999999965
0
LINE
8
Edge.Cuts
6
CONTINUOUS
10
84.1498179999999962
20
-54.5042959999999965
11
84.1497339999999951
21
-54.6349829999999983
0
LINE
8
Edge.Cuts
6
CONTINUOUS
10
84.1497339999999951
20
-54.6349829999999983
11
84.156374999999997
21
-77.4153989999999936
0
LINE
8
Edge.Cuts
6
CONTINUOUS
10
84.156374999999997
20
-77.4153989999999936
11
84.1546179999999993
21
-77.424240999999995
0
LINE
8
Edge.Cuts
6
CONTINUOUS
10
84.1546179999999993
20
-77.424240999999995
11
84.1545899999999989
21
-77.544479999999993
0
LINE
8
Edge.Cuts
6
CONTINUOUS
10
84.1545899999999989
20
-77.544479999999993
11
84.1881609999999938
21
-77.8004349999999931
0
LINE
8
Edge.Cuts
6
CONTINUOUS
10
84.1881609999999938
20
-77.8004349999999931
11
84.254729999999995
21
-78.0498520000000013
0
LINE
8
Edge.Cuts
6
CONTINUOUS
10
84.254729999999995
20
-78.0498520000000013
11
84.3531660000000016
21
-78.288495999999995
0
LINE
8
Edge.Cuts
6
CONTINUOUS
10
84.3531660000000016
20
-78.288495999999995
11
84.4817979999999977
21
-78.5123129999999918
0
LINE
8
Edge.Cuts
6
CONTINUOUS
10
84.4817979999999977
20
-78.5123129999999918
11
84.6384419999999977
21
-78.7175029999999936
0
LINE
8
Edge.Cuts
6
CONTINUOUS
10
84.6384419999999977
20
-78.7175029999999936
11
84.8204379999999958
21
-78.900582
0
LINE
8
Edge.Cuts
6
CONTINUOUS
10
84.8204379999999958
20
-78.900582
11
85.0246939999999967
21
-79.0584419999999994
0
LINE
8
Edge.Cuts
6
CONTINUOUS
10
85.0246939999999967
20
-79.0584419999999994
11
85.2477439999999973
21
-79.1884000000000015
0
LINE
8
Edge.Cuts
6
CONTINUOUS
10
85.2477439999999973
20
-79.1884000000000015
11
85.4857980000000026
21
-79.288252
0
LINE
8
Edge.Cuts
6
CONTINUOUS
10
85.4857980000000026
20
-79.288252
11
85.734815999999995
21
-79.3562999999999903
0
LINE
8
Edge.Cuts
6
CONTINUOUS
10
85.734815999999995
20
-79.3562999999999903
11
85.9905679999999961
21
-79.3913900000000012
0
LINE
8
Edge.Cuts
6
CONTINUOUS
10
85.9905679999999961
20
-79.3913900000000012
11
86.1196399999999898
21
-79.392124999999993
0
LINE
8
Edge.Cuts
6
CONTINUOUS
10
86.1196399999999898
20
-79.392124999999993
11
88.6194909999999965
21
-79.392124999999993
0
LINE
8
Edge.Cuts
6
CONTINUOUS
10
88.6194909999999965
20
-79.392124999999993
11
88.6288879999999892
21
-79.3939939999999922
0
LINE
8
Edge.Cuts
6
CONTINUOUS
10
88.6288879999999892
20
-79.3939939999999922
11
88.6289759999999944
21
-79.3939939999999922
0
LINE
8
Edge.Cuts
6
CONTINUOUS
10
88.6289759999999944
20
-79.3939939999999922
11
88.6289979999999957
21
-79.3940159999999935
0
LINE
8
Edge.Cuts
6
CONTINUOUS
10
88.6289979999999957
20
-79.3940159999999935
11
88.6290580000000006
21
-79.3940279999999916
0
LINE
8
Edge.Cuts
6
CONTINUOUS
10
88.6290580000000006
20
-79.3940279999999916
11
88.6357649999999921
21
-79.4007349999999974
0
LINE
8
Edge.Cuts
6
CONTINUOUS
10
88.6357649999999921
20
-79.4007349999999974
11
88.6425539999999899
21
-79.4074760000000026
0
LINE
8
Edge.Cuts
6
CONTINUOUS
10
88.6425539999999899
20
-79.4074760000000026
11
88.6425660000000022
21
-79.4075359999999932
0
LINE
8
Edge.Cuts
6
CONTINUOUS
10
88.6425660000000022
20
-79.4075359999999932
11
88.6425879999999893
21
-79.4075579999999945
0
LINE
8
Edge.Cuts
6
CONTINUOUS
10
88.6425879999999893
20
-79.4075579999999945
11
88.6425879999999893
21
-79.4076429999999931
0
LINE
8
Edge.Cuts
6
CONTINUOUS
10
88.6425879999999893
20
-79.4076429999999931
11
88.6444910000000021
21
-79.417035999999996
0
LINE
8
Edge.Cuts
6
CONTINUOUS
10
88.6444910000000021
20
-79.417035999999996
11
88.6497339999999951
21
-80.8969259999999935
0
LINE
8
Edge.Cuts
6
CONTINUOUS
10
88.6497339999999951
20
-80.8969259999999935
11
88.6497229999999945
21
-80.8969809999999967
0
LINE
8
Edge.Cuts
6
CONTINUOUS
10
88.6497229999999945
20
-80.8969809999999967
11
88.6497339999999951
21
-80.8970149999999961
0
LINE
8
Edge.Cuts
6
CONTINUOUS
10
88.6497339999999951
20
-80.8970149999999961
11
88.6497339999999951
21
-81.0264629999999926
0
LINE
8
Edge.Cuts
6
CONTINUOUS
10
88.6497339999999951
20
-81.0264629999999926
11
88.6835260000000005
21
-81.2831449999999904
0
LINE
8
Edge.Cuts
6
CONTINUOUS
10
88.6835260000000005
20
-81.2831449999999904
11
88.7505340000000018
21
-81.53322
0
LINE
8
Edge.Cuts
6
CONTINUOUS
10
88.7505340000000018
20
-81.53322
11
88.8496090000000009
21
-81.7724099999999936
0
LINE
8
Edge.Cuts
6
CONTINUOUS
10
88.8496090000000009
20
-81.7724099999999936
11
88.9790569999999974
21
-81.9966209999999904
0
LINE
8
Edge.Cuts
6
CONTINUOUS
10
88.9790569999999974
20
-81.9966209999999904
11
89.1366639999999961
21
-82.2020179999999954
0
LINE
8
Edge.Cuts
6
CONTINUOUS
10
89.1366639999999961
20
-82.2020179999999954
11
89.3197309999999902
21
-82.3850849999999895
0
LINE
8
Edge.Cuts
6
CONTINUOUS
10
89.3197309999999902
20
-82.3850849999999895
11
89.5251279999999952
21
-82.5426920000000024
0
LINE
8
Edge.Cuts
6
CONTINUOUS
10
89.5251279999999952
20
-82.5426920000000024
11
89.749338999999992
21
-82.6721399999999988
0
LINE
8
Edge.Cuts
6
CONTINUOUS
10
89.749338999999992
20
-82.6721399999999988
11
89.9885289999999998
21
-82.771214999999998
0
LINE
8
Edge.Cuts
6
CONTINUOUS
10
89.9885289999999998
20
-82.771214999999998
11
90.2386039999999952
21
-82.8382229999999993
0
LINE
8
Edge.Cuts
6
CONTINUOUS
10
90.2386039999999952
20
-82.8382229999999993
11
90.495285999999993
21
-82.8720149999999904
0
LINE
8
Edge.Cuts
6
CONTINUOUS
10
90.495285999999993
20
-82.8720149999999904
11
90.6247339999999895
21
-82.8720149999999904
0
LINE
8
Edge.Cuts
6
CONTINUOUS
10
90.6247339999999895
20
-82.8720149999999904
11
111.6247339999999895
21
-82.8720149999999904
0
LINE
8
Edge.Cuts
6
CONTINUOUS
10
111.6247339999999895
20
-82.8720149999999904
11
111.7541820000000001
21
-82.8720149999999904
0
LINE
8
Edge.Cuts
6
CONTINUOUS
10
111.7541820000000001
20
-82.8720149999999904
11
112.010863999999998
21
-82.8382229999999993
0
LINE
8
Edge.Cuts
6
CONTINUOUS
10
112.010863999999998
20
-82.8382229999999993
11
112.2609389999999934
21
-82.771214999999998
0
LINE
8
Edge.Cuts
6
CONTINUOUS
10
112.2609389999999934
20
-82.771214999999998
11
112.5001290000000012
21
-82.6721399999999988
0
LINE
8
Edge.Cuts
6
CONTINUOUS
10
112.5001290000000012
20
-82.6721399999999988
11
112.724339999999998
21
-82.5426920000000024
0
LINE
8
Edge.Cuts
6
CONTINUOUS
10
112.724339999999998
20
-82.5426920000000024
11
112.9297369999999887
21
-82.3850849999999895
0
LINE
8
Edge.Cuts
6
CONTINUOUS
10
112.9297369999999887
20
-82.3850849999999895
11
113.112803999999997
21
-82.2020179999999954
0
LINE
8
Edge.Cuts
6
CONTINUOUS
10
113.112803999999997
20
-82.2020179999999954
11
113.2704109999999957
21
-81.9966209999999904
0
LINE
8
Edge.Cuts
6
CONTINUOUS
10
113.2704109999999957
20
-81.9966209999999904
11
113.3998589999999922
21
-81.7724099999999936
0
LINE
8
Edge.Cuts
6
CONTINUOUS
10
113.3998589999999922
20
-81.7724099999999936
11
113.4989339999999913
21
-81.53322
0
LINE
8
Edge.Cuts
6
CONTINUOUS
10
113.4989339999999913
20
-81.53322
11
113.5659419999999926
21
-81.2831449999999904
0
LINE
8
Edge.Cuts
6
CONTINUOUS
10
113.5659419999999926
20
-81.2831449999999904
11
113.599733999999998
21
-81.0264629999999926
0
LINE
8
Edge.Cuts
6
CONTINUOUS
10
113.599733999999998
20
-81.0264629999999926
11
113.599733999999998
21
-80.8970149999999961
0
LINE
8
Edge.Cuts
6
CONTINUOUS
10
113.599733999999998
20
-80.8970149999999961
11
113.599733999999998
21
-56.1470149999999961
0
LINE
8
Edge.Cuts
6
CONTINUOUS
10
113.599733999999998
20
-56.1470149999999961
11
113.599733999999998
21
-56.0175669999999997
0
LINE
8
Edge.Cuts
6
CONTINUOUS
10
113.599733999999998
20
-56.0175669999999997
11
113.5659419999999926
21
-55.7608849999999947
0
LINE
8
Edge.Cuts
6
CONTINUOUS
10
113.5659419999999926
20
-55.7608849999999947
11
113.4989339999999913
21
-55.5108099999999993
0
LINE
8
Edge.Cuts
6
CONTINUOUS
10
113.4989339999999913
20
-55.5108099999999993
11
113.3998589999999922
21
-55.2716199999999986
0
LINE
8
Edge.Cuts
6
CONTINUOUS
10
113.3998589999999922
20
-55.2716199999999986
11
113.2704109999999957
21
-55.0474089999999947
0
LINE
8
Edge.Cuts
6
CONTINUOUS
10
113.2704109999999957
20
-55.0474089999999947
11
113.112803999999997
21
-54.8420119999999969
0
LINE
8
Edge.Cuts
6
CONTINUOUS
10
113.112803999999997
20
-54.8420119999999969
11
112.9297369999999887
21
-54.6589449999999957
0
LINE
8
Edge.Cuts
6
CONTINUOUS
10
112.9297369999999887
20
-54.6589449999999957
11
112.724339999999998
21
-54.501337999999997
0
LINE
8
Edge.Cuts
6
CONTINUOUS
10
112.724339999999998
20
-54.501337999999997
11
112.5001290000000012
21
-54.3718900000000005
0
LINE
8
Edge.Cuts
6
CONTINUOUS
10
112.5001290000000012
20
-54.3718900000000005
11
112.2609389999999934
21
-54.2728149999999943
0
LINE
8
Edge.Cuts
6
CONTINUOUS
10
112.2609389999999934
20
-54.2728149999999943
11
112.010863999999998
21
-54.2058070000000001
0
LINE
8
Edge.Cuts
6
CONTINUOUS
10
112.010863999999998
20
-54.2058070000000001
11
111.7541820000000001
21
-54.1720149999999947
0
LINE
8
Edge.Cuts
6
CONTINUOUS
10
111.7541820000000001
20
-54.1720149999999947
11
111.6247339999999895
21
-54.1720149999999947
0
LINE
8
Edge.Cuts
6
CONTINUOUS
10
111.6247339999999895
20
-54.1720149999999947
11
88.6247339999999895
21
-54.1720149999999947
0
LINE
8
Edge.Cuts
6
CONTINUOUS
10
88.6247339999999895
20
-54.1720149999999947
11
88.61824399999999
21
-54.1707239999999999
0
LINE
8
Edge.Cuts
6
CONTINUOUS
10
88.61824399999999
20
-54.1707239999999999
11
88.617092999999997
21
-54.1708189999999945
0
LINE
8
Edge.Cuts
6
CONTINUOUS
10
88.617092999999997
20
-54.1708189999999945
11
88.6161839999999899
21
-54.1703139999999976
0
LINE
8
Edge.Cuts
6
CONTINUOUS
10
88.6161839999999899
20
-54.1703139999999976
11
88.6151669999999996
21
-54.170111999999996
0
LINE
8
Edge.Cuts
6
CONTINUOUS
10
88.6151669999999996
20
-54.170111999999996
11
88.6143509999999992
21
-54.1692959999999957
0
LINE
8
Edge.Cuts
6
CONTINUOUS
10
88.6143509999999992
20
-54.1692959999999957
11
88.6085659999999962
21
-54.1660830000000004
0
LINE
8
Edge.Cuts
6
CONTINUOUS
10
88.6085659999999962
20
-54.1660830000000004
11
87.5545469999999995
21
-53.2723429999999993
0
LINE
8
Edge.Cuts
6
CONTINUOUS
10
87.5545469999999995
20
-53.2723429999999993
11
87.5534779999999984
21
-53.2709979999999987
0
LINE
8
Edge.Cuts
6
CONTINUOUS
10
87.5534779999999984
20
-53.2709979999999987
11
87.5526409999999942
21
-53.2705470000000005
0
LINE
8
Edge.Cuts
6
CONTINUOUS
10
87.5526409999999942
20
-53.2705470000000005
11
87.4622889999999984
21
-53.1761139999999983
0
LINE
8
Edge.Cuts
6
CONTINUOUS
10
87.4622889999999984
20
-53.1761139999999983
11
87.2583759999999984
21
-53.0125809999999973
0
LINE
8
Edge.Cuts
6
CONTINUOUS
10
87.2583759999999984
20
-53.0125809999999973
11
87.0346909999999951
21
-52.8773440000000008
0
LINE
8
Edge.Cuts
6
CONTINUOUS
10
87.0346909999999951
20
-52.8773440000000008
11
86.7951369999999969
21
-52.7727629999999976
0
LINE
8
Edge.Cuts
6
CONTINUOUS
10
86.7951369999999969
20
-52.7727629999999976
11
86.543888999999993
21
-52.7006619999999941
0
LINE
8
Edge.Cuts
6
CONTINUOUS
10
86.543888999999993
20
-52.7006619999999941
11
86.2853319999999968
21
-52.6622979999999998
0
LINE
8
Edge.Cuts
6
CONTINUOUS
10
86.2853319999999968
20
-52.6622979999999998
11
86.0239739999999955
21
-52.6583399999999955
0
LINE
8
Edge.Cuts
6
CONTINUOUS
10
86.0239739999999955
20
-52.6583399999999955
11
85.7643739999999895
21
-52.6888569999999987
0
CIRCLE
8
Edge.Cuts
10
107.5447339999999912
20
-55.6970150000000004
40
0.175
0
CIRCLE
8
Edge.Cuts
10
92.3047339999999963
20
-55.6970150000000004
40
0.175
0
LINE
8
Edge.Cuts
6
CONTINUOUS
10
106.9147339999999957
20
-71.9970149999999904
11
107.51473399999999
21
-71.9970149999999904
0
ARC
8
Edge.Cuts
10
107.51473399999999
20
-71.4470149999999933
40
0.5499999999999999
50
-90.00000000
51
90.00000000
0
LINE
8
Edge.Cuts
6
CONTINUOUS
10
107.51473399999999
20
-70.8970149999999961
11
106.9147339999999957
21
-70.8970149999999961
0
ARC
8
Edge.Cuts
10
106.9147339999999957
20
-71.4470149999999933
40
0.5499999999999999
50
90.00000000
51
270.00000000
0
LINE
8
Edge.Cuts
6
CONTINUOUS
10
110.7147339999999929
20
-71.9970149999999904
11
111.3147340000000014
21
-71.9970149999999904
0
ARC
8
Edge.Cuts
10
111.3147340000000014
20
-71.4470149999999933
40
0.5499999999999999
50
-90.00000000
51
90.00000000
0
LINE
8
Edge.Cuts
6
CONTINUOUS
10
111.3147340000000014
20
-70.8970149999999961
11
110.7147339999999929
21
-70.8970149999999961
0
ARC
8
Edge.Cuts
10
110.7147339999999929
20
-71.4470149999999933
40
0.5499999999999999
50
90.00000000
51
270.00000000
0
LINE
8
Edge.Cuts
6
CONTINUOUS
10
106.9147339999999957
20
-63.357014999999997
11
107.51473399999999
21
-63.357014999999997
0
ARC
8
Edge.Cuts
10
107.51473399999999
20
-62.8070149999999998
40
0.5499999999999999
50
-90.00000000
51
90.00000000
0
LINE
8
Edge.Cuts
6
CONTINUOUS
10
107.51473399999999
20
-62.2570149999999956
11
106.9147339999999957
21
-62.2570149999999956
0
ARC
8
Edge.Cuts
10
106.9147339999999957
20
-62.8070149999999998
40
0.5499999999999999
50
90.00000000
51
270.00000000
0
LINE
8
Edge.Cuts
6
CONTINUOUS
10
110.7147339999999929
20
-63.357014999999997
11
111.3147340000000014
21
-63.357014999999997
0
ARC
8
Edge.Cuts
10
111.3147340000000014
20
-62.8070149999999998
40
0.5499999999999999
50
-90.00000000
51
90.00000000
0
LINE
8
Edge.Cuts
6
CONTINUOUS
10
111.3147340000000014
20
-62.2570149999999956
11
110.7147339999999929
21
-62.2570149999999956
0
ARC
8
Edge.Cuts
10
110.7147339999999929
20
-62.8070149999999998
40
0.5499999999999999
50
90.00000000
51
270.00000000
0
CIRCLE
8
Edge.Cuts
10
107.5447339999999912
20
-55.6970150000000004
40
0.175
0
CIRCLE
8
Edge.Cuts
10
92.3047339999999963
20
-55.6970150000000004
40
0.175
0
LINE
8
Edge.Cuts
6
CONTINUOUS
10
106.9147339999999957
20
-71.7470149999999904
11
107.51473399999999
21
-71.7470149999999904
0
ARC
8
Edge.Cuts
10
107.51473399999999
20
-71.4470149999999933
40
0.3
50
-90.00000000
51
90.00000000
0
LINE
8
Edge.Cuts
6
CONTINUOUS
10
107.51473399999999
20
-71.1470149999999961
11
106.9147339999999957
21
-71.1470149999999961
0
ARC
8
Edge.Cuts
10
106.9147339999999957
20
-71.4470149999999933
40
0.3
50
90.00000000
51
270.00000000
0
LINE
8
Edge.Cuts
6
CONTINUOUS
10
110.7147339999999929
20
-71.7470149999999904
11
111.3147340000000014
21
-71.7470149999999904
0
ARC
8
Edge.Cuts
10
111.3147340000000014
20
-71.4470149999999933
40
0.3
50
-90.00000000
51
90.00000000
0
LINE
8
Edge.Cuts
6
CONTINUOUS
10
111.3147340000000014
20
-71.1470149999999961
11
110.7147339999999929
21
-71.1470149999999961
0
ARC
8
Edge.Cuts
10
110.7147339999999929
20
-71.4470149999999933
40
0.3
50
90.00000000
51
270.00000000
0
LINE
8
Edge.Cuts
6
CONTINUOUS
10
106.9147339999999957
20
-63.107014999999997
11
107.51473399999999
21
-63.107014999999997
0
ARC
8
Edge.Cuts
10
107.51473399999999
20
-62.8070149999999998
40
0.3
50
-90.00000000
51
90.00000000
0
LINE
8
Edge.Cuts
6
CONTINUOUS
10
107.51473399999999
20
-62.5070149999999956
11
106.9147339999999957
21
-62.5070149999999956
0
ARC
8
Edge.Cuts
10
106.9147339999999957
20
-62.8070149999999998
40
0.3
50
90.00000000
51
270.00000000
0
LINE
8
Edge.Cuts
6
CONTINUOUS
10
110.7147339999999929
20
-63.107014999999997
11
111.3147340000000014
21
-63.107014999999997
0
ARC
8
Edge.Cuts
10
111.3147340000000014
20
-62.8070149999999998
40
0.3
50
-90.00000000
51
90.00000000
0
LINE
8
Edge.Cuts
6
CONTINUOUS
10
111.3147340000000014
20
-62.5070149999999956
11
110.7147339999999929
21
-62.5070149999999956
0
ARC
8
Edge.Cuts
10
110.7147339999999929
20
-62.8070149999999998
40
0.3
50
90.00000000
51
270.00000000
  0
ENDSEC
  0
EOF
