  0
SECTION
  2
HEADER
  9
$ANGBASE
  50
0.0
  9
$ANGDIR
  70
1
  9
$MEASUREMENT
  70
1
  9
$INSUNITS
  70
4
  0
ENDSEC
  0
SECTION
  2
TABLES
  0
TABLE
  2
LTYPE
  70
4
  0
LTYPE
  5
40F
  2
CONTINUOUS
  70
0
  3
Solid line
  72
65
  73
0
  40
0.0
  0
LTYPE
  5
410
  2
DASHDOT
 70
0
  3
Dash Dot ____ _ ____ _
 72
65
 73
4
 40
2.0
 49
1.25
 49
-0.25
 49
0.25
 49
-0.25
  0
LTYPE
  5
411
  2
DASHED
 70
0
  3
Dashed __ __ __ __ __
 72
65
 73
2
 40
0.75
 49
0.5
 49
-0.25
  0
LTYPE
  5
43B
  2
DOTTED
 70
0
  3
Dotted .  .  .  .
 72
65
 73
2
 40
0.2
 49
0.0
 49
-0.2
  0
ENDTAB
  0
TABLE
  2
STYLE
  70
4
  0
STYLE
  2
KICAD
  70
0
  40
0
  41
1
  42
1
  50
0
  71
0
  3
isocp.shx
  0
STYLE
  2
KICADB
  70
0
  40
0
  41
1
  42
1
  50
0
  71
0
  3
isocp.shx
  0
STYLE
  2
KICADI
  70
0
  40
0
  41
1
  42
1
  50
15
  71
0
  3
isocp.shx
  0
STYLE
  2
KICADBI
  70
0
  40
0
  41
1
  42
1
  50
15
  71
0
  3
isocp.shx
  0
ENDTAB
  0
TABLE
  2
LAYER
  70
4
  0
LAYER
  2
F.Cu
  70
0
  62
13
  420
13120564
  6
CONTINUOUS
  0
LAYER
  2
B.Cu
  70
0
  62
153
  420
5078980
  6
CONTINUOUS
  0
LAYER
  2
F.Paste
  70
0
  62
253
  420
11837594
  6
CONTINUOUS
  0
LAYER
  2
Edge.Cuts
  70
0
  62
254
  420
13685453
  6
CONTINUOUS
  0
ENDTAB
  0
ENDSEC
  0
SECTION
  2
ENTITIES
0
LINE
8
B.Cu
6
CONTINUOUS
10
107.5865229999999997
20
-70.9017199999999974
11
107.7252099999999899
21
-70.938880999999995
0
LINE
8
B.Cu
6
CONTINUOUS
10
107.7252099999999899
20
-70.938880999999995
11
107.8495530000000002
21
-71.0106710000000021
0
LINE
8
B.Cu
6
CONTINUOUS
10
107.8495530000000002
20
-71.0106710000000021
11
107.9510779999999954
21
-71.1121959999999973
0
LINE
8
B.Cu
6
CONTINUOUS
10
107.9510779999999954
20
-71.1121959999999973
11
108.0228679999999883
21
-71.2365389999999934
0
LINE
8
B.Cu
6
CONTINUOUS
10
108.0228679999999883
20
-71.2365389999999934
11
108.0600290000000001
21
-71.3752259999999978
0
LINE
8
B.Cu
6
CONTINUOUS
10
108.0600290000000001
20
-71.3752259999999978
11
108.0600290000000001
21
-71.5188040000000029
0
LINE
8
B.Cu
6
CONTINUOUS
10
108.0600290000000001
20
-71.5188040000000029
11
108.0228679999999883
21
-71.6574909999999932
0
LINE
8
B.Cu
6
CONTINUOUS
10
108.0228679999999883
20
-71.6574909999999932
11
107.9510779999999954
21
-71.7818340000000035
0
LINE
8
B.Cu
6
CONTINUOUS
10
107.9510779999999954
20
-71.7818340000000035
11
107.8495530000000002
21
-71.8833589999999987
0
LINE
8
B.Cu
6
CONTINUOUS
10
107.8495530000000002
20
-71.8833589999999987
11
107.7252099999999899
21
-71.9551489999999916
0
LINE
8
B.Cu
6
CONTINUOUS
10
107.7252099999999899
20
-71.9551489999999916
11
107.5865229999999997
21
-71.9923100000000034
0
LINE
8
B.Cu
6
CONTINUOUS
10
107.5865229999999997
20
-71.9923100000000034
11
107.51473399999999
21
-71.9970149999999904
0
LINE
8
B.Cu
6
CONTINUOUS
10
107.51473399999999
20
-71.9970149999999904
11
106.9147339999999957
21
-71.9970149999999904
0
LINE
8
B.Cu
6
CONTINUOUS
10
106.9147339999999957
20
-71.9970149999999904
11
106.8429450000000003
21
-71.9923100000000034
0
LINE
8
B.Cu
6
CONTINUOUS
10
106.8429450000000003
20
-71.9923100000000034
11
106.7042579999999958
21
-71.9551489999999916
0
LINE
8
B.Cu
6
CONTINUOUS
10
106.7042579999999958
20
-71.9551489999999916
11
106.5799149999999997
21
-71.8833589999999987
0
LINE
8
B.Cu
6
CONTINUOUS
10
106.5799149999999997
20
-71.8833589999999987
11
106.4783899999999903
21
-71.7818340000000035
0
LINE
8
B.Cu
6
CONTINUOUS
10
106.4783899999999903
20
-71.7818340000000035
11
106.4065999999999974
21
-71.6574909999999932
0
LINE
8
B.Cu
6
CONTINUOUS
10
106.4065999999999974
20
-71.6574909999999932
11
106.3694389999999999
21
-71.5188040000000029
0
LINE
8
B.Cu
6
CONTINUOUS
10
106.3694389999999999
20
-71.5188040000000029
11
106.3694389999999999
21
-71.3752259999999978
0
LINE
8
B.Cu
6
CONTINUOUS
10
106.3694389999999999
20
-71.3752259999999978
11
106.4065999999999974
21
-71.2365389999999934
0
LINE
8
B.Cu
6
CONTINUOUS
10
106.4065999999999974
20
-71.2365389999999934
11
106.4783899999999903
21
-71.1121959999999973
0
LINE
8
B.Cu
6
CONTINUOUS
10
106.4783899999999903
20
-71.1121959999999973
11
106.5799149999999997
21
-71.0106710000000021
0
LINE
8
B.Cu
6
CONTINUOUS
10
106.5799149999999997
20
-71.0106710000000021
11
106.7042579999999958
21
-70.938880999999995
0
LINE
8
B.Cu
6
CONTINUOUS
10
106.7042579999999958
20
-70.938880999999995
11
106.8429450000000003
21
-70.9017199999999974
0
LINE
8
B.Cu
6
CONTINUOUS
10
106.8429450000000003
20
-70.9017199999999974
11
106.9147339999999957
21
-70.8970149999999961
0
LINE
8
B.Cu
6
CONTINUOUS
10
106.9147339999999957
20
-70.8970149999999961
11
107.51473399999999
21
-70.8970149999999961
0
LINE
8
B.Cu
6
CONTINUOUS
10
107.51473399999999
20
-70.8970149999999961
11
107.5865229999999997
21
-70.9017199999999974
0
LINE
8
B.Cu
6
CONTINUOUS
10
111.3865229999999968
20
-70.9017199999999974
11
111.5252100000000013
21
-70.938880999999995
0
LINE
8
B.Cu
6
CONTINUOUS
10
111.5252100000000013
20
-70.938880999999995
11
111.6495529999999974
21
-71.0106710000000021
0
LINE
8
B.Cu
6
CONTINUOUS
10
111.6495529999999974
20
-71.0106710000000021
11
111.7510779999999926
21
-71.1121959999999973
0
LINE
8
B.Cu
6
CONTINUOUS
10
111.7510779999999926
20
-71.1121959999999973
11
111.8228679999999997
21
-71.2365389999999934
0
LINE
8
B.Cu
6
CONTINUOUS
10
111.8228679999999997
20
-71.2365389999999934
11
111.8600289999999973
21
-71.3752259999999978
0
LINE
8
B.Cu
6
CONTINUOUS
10
111.8600289999999973
20
-71.3752259999999978
11
111.8600289999999973
21
-71.5188040000000029
0
LINE
8
B.Cu
6
CONTINUOUS
10
111.8600289999999973
20
-71.5188040000000029
11
111.8228679999999997
21
-71.6574909999999932
0
LINE
8
B.Cu
6
CONTINUOUS
10
111.8228679999999997
20
-71.6574909999999932
11
111.7510779999999926
21
-71.7818340000000035
0
LINE
8
B.Cu
6
CONTINUOUS
10
111.7510779999999926
20
-71.7818340000000035
11
111.6495529999999974
21
-71.8833589999999987
0
LINE
8
B.Cu
6
CONTINUOUS
10
111.6495529999999974
20
-71.8833589999999987
11
111.5252100000000013
21
-71.9551489999999916
0
LINE
8
B.Cu
6
CONTINUOUS
10
111.5252100000000013
20
-71.9551489999999916
11
111.3865229999999968
21
-71.9923100000000034
0
LINE
8
B.Cu
6
CONTINUOUS
10
111.3865229999999968
20
-71.9923100000000034
11
111.3147340000000014
21
-71.9970149999999904
0
LINE
8
B.Cu
6
CONTINUOUS
10
111.3147340000000014
20
-71.9970149999999904
11
110.7147339999999929
21
-71.9970149999999904
0
LINE
8
B.Cu
6
CONTINUOUS
10
110.7147339999999929
20
-71.9970149999999904
11
110.6429449999999974
21
-71.9923100000000034
0
LINE
8
B.Cu
6
CONTINUOUS
10
110.6429449999999974
20
-71.9923100000000034
11
110.504257999999993
21
-71.9551489999999916
0
LINE
8
B.Cu
6
CONTINUOUS
10
110.504257999999993
20
-71.9551489999999916
11
110.3799149999999969
21
-71.8833589999999987
0
LINE
8
B.Cu
6
CONTINUOUS
10
110.3799149999999969
20
-71.8833589999999987
11
110.2783900000000017
21
-71.7818340000000035
0
LINE
8
B.Cu
6
CONTINUOUS
10
110.2783900000000017
20
-71.7818340000000035
11
110.2065999999999946
21
-71.6574909999999932
0
LINE
8
B.Cu
6
CONTINUOUS
10
110.2065999999999946
20
-71.6574909999999932
11
110.169438999999997
21
-71.5188040000000029
0
LINE
8
B.Cu
6
CONTINUOUS
10
110.169438999999997
20
-71.5188040000000029
11
110.169438999999997
21
-71.3752259999999978
0
LINE
8
B.Cu
6
CONTINUOUS
10
110.169438999999997
20
-71.3752259999999978
11
110.2065999999999946
21
-71.2365389999999934
0
LINE
8
B.Cu
6
CONTINUOUS
10
110.2065999999999946
20
-71.2365389999999934
11
110.2783900000000017
21
-71.1121959999999973
0
LINE
8
B.Cu
6
CONTINUOUS
10
110.2783900000000017
20
-71.1121959999999973
11
110.3799149999999969
21
-71.0106710000000021
0
LINE
8
B.Cu
6
CONTINUOUS
10
110.3799149999999969
20
-71.0106710000000021
11
110.504257999999993
21
-70.938880999999995
0
LINE
8
B.Cu
6
CONTINUOUS
10
110.504257999999993
20
-70.938880999999995
11
110.6429449999999974
21
-70.9017199999999974
0
LINE
8
B.Cu
6
CONTINUOUS
10
110.6429449999999974
20
-70.9017199999999974
11
110.7147339999999929
21
-70.8970149999999961
0
LINE
8
B.Cu
6
CONTINUOUS
10
110.7147339999999929
20
-70.8970149999999961
11
111.3147340000000014
21
-70.8970149999999961
0
LINE
8
B.Cu
6
CONTINUOUS
10
111.3147340000000014
20
-70.8970149999999961
11
111.3865229999999968
21
-70.9017199999999974
0
LINE
8
B.Cu
6
CONTINUOUS
10
107.5865229999999997
20
-62.2617199999999968
11
107.7252099999999899
21
-62.2988809999999944
0
LINE
8
B.Cu
6
CONTINUOUS
10
107.7252099999999899
20
-62.2988809999999944
11
107.8495530000000002
21
-62.3706709999999944
0
LINE
8
B.Cu
6
CONTINUOUS
10
107.8495530000000002
20
-62.3706709999999944
11
107.9510779999999954
21
-62.4721959999999967
0
LINE
8
B.Cu
6
CONTINUOUS
10
107.9510779999999954
20
-62.4721959999999967
11
108.0228679999999883
21
-62.5965389999999999
0
LINE
8
B.Cu
6
CONTINUOUS
10
108.0228679999999883
20
-62.5965389999999999
11
108.0600290000000001
21
-62.7352259999999973
0
LINE
8
B.Cu
6
CONTINUOUS
10
108.0600290000000001
20
-62.7352259999999973
11
108.0600290000000001
21
-62.8788039999999953
0
LINE
8
B.Cu
6
CONTINUOUS
10
108.0600290000000001
20
-62.8788039999999953
11
108.0228679999999883
21
-63.0174909999999997
0
LINE
8
B.Cu
6
CONTINUOUS
10
108.0228679999999883
20
-63.0174909999999997
11
107.9510779999999954
21
-63.1418339999999958
0
LINE
8
B.Cu
6
CONTINUOUS
10
107.9510779999999954
20
-63.1418339999999958
11
107.8495530000000002
21
-63.2433589999999981
0
LINE
8
B.Cu
6
CONTINUOUS
10
107.8495530000000002
20
-63.2433589999999981
11
107.7252099999999899
21
-63.3151489999999981
0
LINE
8
B.Cu
6
CONTINUOUS
10
107.7252099999999899
20
-63.3151489999999981
11
107.5865229999999997
21
-63.3523099999999957
0
LINE
8
B.Cu
6
CONTINUOUS
10
107.5865229999999997
20
-63.3523099999999957
11
107.51473399999999
21
-63.357014999999997
0
LINE
8
B.Cu
6
CONTINUOUS
10
107.51473399999999
20
-63.357014999999997
11
106.9147339999999957
21
-63.357014999999997
0
LINE
8
B.Cu
6
CONTINUOUS
10
106.9147339999999957
20
-63.357014999999997
11
106.8429450000000003
21
-63.3523099999999957
0
LINE
8
B.Cu
6
CONTINUOUS
10
106.8429450000000003
20
-63.3523099999999957
11
106.7042579999999958
21
-63.3151489999999981
0
LINE
8
B.Cu
6
CONTINUOUS
10
106.7042579999999958
20
-63.3151489999999981
11
106.5799149999999997
21
-63.2433589999999981
0
LINE
8
B.Cu
6
CONTINUOUS
10
106.5799149999999997
20
-63.2433589999999981
11
106.4783899999999903
21
-63.1418339999999958
0
LINE
8
B.Cu
6
CONTINUOUS
10
106.4783899999999903
20
-63.1418339999999958
11
106.4065999999999974
21
-63.0174909999999997
0
LINE
8
B.Cu
6
CONTINUOUS
10
106.4065999999999974
20
-63.0174909999999997
11
106.3694389999999999
21
-62.8788039999999953
0
LINE
8
B.Cu
6
CONTINUOUS
10
106.3694389999999999
20
-62.8788039999999953
11
106.3694389999999999
21
-62.7352259999999973
0
LINE
8
B.Cu
6
CONTINUOUS
10
106.3694389999999999
20
-62.7352259999999973
11
106.4065999999999974
21
-62.5965389999999999
0
LINE
8
B.Cu
6
CONTINUOUS
10
106.4065999999999974
20
-62.5965389999999999
11
106.4783899999999903
21
-62.4721959999999967
0
LINE
8
B.Cu
6
CONTINUOUS
10
106.4783899999999903
20
-62.4721959999999967
11
106.5799149999999997
21
-62.3706709999999944
0
LINE
8
B.Cu
6
CONTINUOUS
10
106.5799149999999997
20
-62.3706709999999944
11
106.7042579999999958
21
-62.2988809999999944
0
LINE
8
B.Cu
6
CONTINUOUS
10
106.7042579999999958
20
-62.2988809999999944
11
106.8429450000000003
21
-62.2617199999999968
0
LINE
8
B.Cu
6
CONTINUOUS
10
106.8429450000000003
20
-62.2617199999999968
11
106.9147339999999957
21
-62.2570149999999956
0
LINE
8
B.Cu
6
CONTINUOUS
10
106.9147339999999957
20
-62.2570149999999956
11
107.51473399999999
21
-62.2570149999999956
0
LINE
8
B.Cu
6
CONTINUOUS
10
107.51473399999999
20
-62.2570149999999956
11
107.5865229999999997
21
-62.2617199999999968
0
LINE
8
B.Cu
6
CONTINUOUS
10
111.3865229999999968
20
-62.2617199999999968
11
111.5252100000000013
21
-62.2988809999999944
0
LINE
8
B.Cu
6
CONTINUOUS
10
111.5252100000000013
20
-62.2988809999999944
11
111.6495529999999974
21
-62.3706709999999944
0
LINE
8
B.Cu
6
CONTINUOUS
10
111.6495529999999974
20
-62.3706709999999944
11
111.7510779999999926
21
-62.4721959999999967
0
LINE
8
B.Cu
6
CONTINUOUS
10
111.7510779999999926
20
-62.4721959999999967
11
111.8228679999999997
21
-62.5965389999999999
0
LINE
8
B.Cu
6
CONTINUOUS
10
111.8228679999999997
20
-62.5965389999999999
11
111.8600289999999973
21
-62.7352259999999973
0
LINE
8
B.Cu
6
CONTINUOUS
10
111.8600289999999973
20
-62.7352259999999973
11
111.8600289999999973
21
-62.8788039999999953
0
LINE
8
B.Cu
6
CONTINUOUS
10
111.8600289999999973
20
-62.8788039999999953
11
111.8228679999999997
21
-63.0174909999999997
0
LINE
8
B.Cu
6
CONTINUOUS
10
111.8228679999999997
20
-63.0174909999999997
11
111.7510779999999926
21
-63.1418339999999958
0
LINE
8
B.Cu
6
CONTINUOUS
10
111.7510779999999926
20
-63.1418339999999958
11
111.6495529999999974
21
-63.2433589999999981
0
LINE
8
B.Cu
6
CONTINUOUS
10
111.6495529999999974
20
-63.2433589999999981
11
111.5252100000000013
21
-63.3151489999999981
0
LINE
8
B.Cu
6
CONTINUOUS
10
111.5252100000000013
20
-63.3151489999999981
11
111.3865229999999968
21
-63.3523099999999957
0
LINE
8
B.Cu
6
CONTINUOUS
10
111.3865229999999968
20
-63.3523099999999957
11
111.3147340000000014
21
-63.357014999999997
0
LINE
8
B.Cu
6
CONTINUOUS
10
111.3147340000000014
20
-63.357014999999997
11
110.7147339999999929
21
-63.357014999999997
0
LINE
8
B.Cu
6
CONTINUOUS
10
110.7147339999999929
20
-63.357014999999997
11
110.6429449999999974
21
-63.3523099999999957
0
LINE
8
B.Cu
6
CONTINUOUS
10
110.6429449999999974
20
-63.3523099999999957
11
110.504257999999993
21
-63.3151489999999981
0
LINE
8
B.Cu
6
CONTINUOUS
10
110.504257999999993
20
-63.3151489999999981
11
110.3799149999999969
21
-63.2433589999999981
0
LINE
8
B.Cu
6
CONTINUOUS
10
110.3799149999999969
20
-63.2433589999999981
11
110.2783900000000017
21
-63.1418339999999958
0
LINE
8
B.Cu
6
CONTINUOUS
10
110.2783900000000017
20
-63.1418339999999958
11
110.2065999999999946
21
-63.0174909999999997
0
LINE
8
B.Cu
6
CONTINUOUS
10
110.2065999999999946
20
-63.0174909999999997
11
110.169438999999997
21
-62.8788039999999953
0
LINE
8
B.Cu
6
CONTINUOUS
10
110.169438999999997
20
-62.8788039999999953
11
110.169438999999997
21
-62.7352259999999973
0
LINE
8
B.Cu
6
CONTINUOUS
10
110.169438999999997
20
-62.7352259999999973
11
110.2065999999999946
21
-62.5965389999999999
0
LINE
8
B.Cu
6
CONTINUOUS
10
110.2065999999999946
20
-62.5965389999999999
11
110.2783900000000017
21
-62.4721959999999967
0
LINE
8
B.Cu
6
CONTINUOUS
10
110.2783900000000017
20
-62.4721959999999967
11
110.3799149999999969
21
-62.3706709999999944
0
LINE
8
B.Cu
6
CONTINUOUS
10
110.3799149999999969
20
-62.3706709999999944
11
110.504257999999993
21
-62.2988809999999944
0
LINE
8
B.Cu
6
CONTINUOUS
10
110.504257999999993
20
-62.2988809999999944
11
110.6429449999999974
21
-62.2617199999999968
0
LINE
8
B.Cu
6
CONTINUOUS
10
110.6429449999999974
20
-62.2617199999999968
11
110.7147339999999929
21
-62.2570149999999956
0
LINE
8
B.Cu
6
CONTINUOUS
10
110.7147339999999929
20
-62.2570149999999956
11
111.3147340000000014
21
-62.2570149999999956
0
LINE
8
B.Cu
6
CONTINUOUS
10
111.3147340000000014
20
-62.2570149999999956
11
111.3865229999999968
21
-62.2617199999999968
0
LINE
8
B.Cu
6
CONTINUOUS
10
103.9069619999999929
20
-57.4314630000000008
11
104.0518509999999992
21
-57.4914780000000007
0
LINE
8
B.Cu
6
CONTINUOUS
10
104.0518509999999992
20
-57.4914780000000007
11
104.1822489999999988
21
-57.5786069999999981
0
LINE
8
B.Cu
6
CONTINUOUS
10
104.1822489999999988
20
-57.5786069999999981
11
104.2931419999999889
21
-57.6894999999999953
0
LINE
8
B.Cu
6
CONTINUOUS
10
104.2931419999999889
20
-57.6894999999999953
11
104.3802709999999934
21
-57.8198979999999949
0
LINE
8
B.Cu
6
CONTINUOUS
10
104.3802709999999934
20
-57.8198979999999949
11
104.4402860000000004
21
-57.9647869999999941
0
LINE
8
B.Cu
6
CONTINUOUS
10
104.4402860000000004
20
-57.9647869999999941
11
104.4466970000000003
21
-57.9970149999999975
0
LINE
8
B.Cu
6
CONTINUOUS
10
104.4466970000000003
20
-57.9970149999999975
11
105.4247340000000008
21
-57.9970149999999975
0
LINE
8
B.Cu
6
CONTINUOUS
10
105.4247340000000008
20
-57.9970149999999975
11
105.4247340000000008
21
-57.847014999999999
0
LINE
8
B.Cu
6
CONTINUOUS
10
105.4247340000000008
20
-57.847014999999999
11
105.4392840000000007
21
-57.7471469999999982
0
LINE
8
B.Cu
6
CONTINUOUS
10
105.4392840000000007
20
-57.7471469999999982
11
105.489886999999996
21
-57.6436379999999957
0
LINE
8
B.Cu
6
CONTINUOUS
10
105.489886999999996
20
-57.6436379999999957
11
105.5713569999999919
21
-57.5621679999999998
0
LINE
8
B.Cu
6
CONTINUOUS
10
105.5713569999999919
20
-57.5621679999999998
11
105.6748659999999944
21
-57.5115649999999974
0
LINE
8
B.Cu
6
CONTINUOUS
10
105.6748659999999944
20
-57.5115649999999974
11
105.7747339999999951
21
-57.4970149999999975
0
LINE
8
B.Cu
6
CONTINUOUS
10
105.7747339999999951
20
-57.4970149999999975
11
111.5747339999999923
21
-57.4970149999999975
0
LINE
8
B.Cu
6
CONTINUOUS
10
111.5747339999999923
20
-57.4970149999999975
11
111.674601999999993
21
-57.5115649999999974
0
LINE
8
B.Cu
6
CONTINUOUS
10
111.674601999999993
20
-57.5115649999999974
11
111.7781109999999956
21
-57.5621679999999998
0
LINE
8
B.Cu
6
CONTINUOUS
10
111.7781109999999956
20
-57.5621679999999998
11
111.8595809999999915
21
-57.6436379999999957
0
LINE
8
B.Cu
6
CONTINUOUS
10
111.8595809999999915
20
-57.6436379999999957
11
111.910184000000001
21
-57.7471469999999982
0
LINE
8
B.Cu
6
CONTINUOUS
10
111.910184000000001
20
-57.7471469999999982
11
111.9247340000000008
21
-57.847014999999999
0
LINE
8
B.Cu
6
CONTINUOUS
10
111.9247340000000008
20
-57.847014999999999
11
111.9247340000000008
21
-58.5470149999999947
0
LINE
8
B.Cu
6
CONTINUOUS
10
111.9247340000000008
20
-58.5470149999999947
11
111.910184000000001
21
-58.6468829999999954
0
LINE
8
B.Cu
6
CONTINUOUS
10
111.910184000000001
20
-58.6468829999999954
11
111.8595809999999915
21
-58.7503919999999979
0
LINE
8
B.Cu
6
CONTINUOUS
10
111.8595809999999915
20
-58.7503919999999979
11
111.7781109999999956
21
-58.8318619999999939
0
LINE
8
B.Cu
6
CONTINUOUS
10
111.7781109999999956
20
-58.8318619999999939
11
111.674601999999993
21
-58.8824649999999963
0
LINE
8
B.Cu
6
CONTINUOUS
10
111.674601999999993
20
-58.8824649999999963
11
111.5747339999999923
21
-58.8970149999999961
0
LINE
8
B.Cu
6
CONTINUOUS
10
111.5747339999999923
20
-58.8970149999999961
11
105.7747339999999951
21
-58.8970149999999961
0
LINE
8
B.Cu
6
CONTINUOUS
10
105.7747339999999951
20
-58.8970149999999961
11
105.6748659999999944
21
-58.8824649999999963
0
LINE
8
B.Cu
6
CONTINUOUS
10
105.6748659999999944
20
-58.8824649999999963
11
105.5713569999999919
21
-58.8318619999999939
0
LINE
8
B.Cu
6
CONTINUOUS
10
105.5713569999999919
20
-58.8318619999999939
11
105.489886999999996
21
-58.7503919999999979
0
LINE
8
B.Cu
6
CONTINUOUS
10
105.489886999999996
20
-58.7503919999999979
11
105.4392840000000007
21
-58.6468829999999954
0
LINE
8
B.Cu
6
CONTINUOUS
10
105.4392840000000007
20
-58.6468829999999954
11
105.4247340000000008
21
-58.5470149999999947
0
LINE
8
B.Cu
6
CONTINUOUS
10
105.4247340000000008
20
-58.5470149999999947
11
105.4247340000000008
21
-58.3970149999999961
0
LINE
8
B.Cu
6
CONTINUOUS
10
105.4247340000000008
20
-58.3970149999999961
11
104.4466970000000003
21
-58.3970149999999961
0
LINE
8
B.Cu
6
CONTINUOUS
10
104.4466970000000003
20
-58.3970149999999961
11
104.4402860000000004
21
-58.4292429999999996
0
LINE
8
B.Cu
6
CONTINUOUS
10
104.4402860000000004
20
-58.4292429999999996
11
104.3802709999999934
21
-58.5741319999999988
0
LINE
8
B.Cu
6
CONTINUOUS
10
104.3802709999999934
20
-58.5741319999999988
11
104.2931419999999889
21
-58.7045299999999983
0
LINE
8
B.Cu
6
CONTINUOUS
10
104.2931419999999889
20
-58.7045299999999983
11
104.1822489999999988
21
-58.8154229999999956
0
LINE
8
B.Cu
6
CONTINUOUS
10
104.1822489999999988
20
-58.8154229999999956
11
104.0518509999999992
21
-58.902552
0
LINE
8
B.Cu
6
CONTINUOUS
10
104.0518509999999992
20
-58.902552
11
103.9069619999999929
21
-58.962567
0
LINE
8
B.Cu
6
CONTINUOUS
10
103.9069619999999929
20
-58.962567
11
103.7531479999999959
21
-58.9931629999999956
0
LINE
8
B.Cu
6
CONTINUOUS
10
103.7531479999999959
20
-58.9931629999999956
11
103.5963199999999915
21
-58.9931629999999956
0
LINE
8
B.Cu
6
CONTINUOUS
10
103.5963199999999915
20
-58.9931629999999956
11
103.4425059999999945
21
-58.962567
0
LINE
8
B.Cu
6
CONTINUOUS
10
103.4425059999999945
20
-58.962567
11
103.2976169999999883
21
-58.902552
0
LINE
8
B.Cu
6
CONTINUOUS
10
103.2976169999999883
20
-58.902552
11
103.1672189999999887
21
-58.8154229999999956
0
LINE
8
B.Cu
6
CONTINUOUS
10
103.1672189999999887
20
-58.8154229999999956
11
103.0563259999999985
21
-58.7045299999999983
0
LINE
8
B.Cu
6
CONTINUOUS
10
103.0563259999999985
20
-58.7045299999999983
11
102.9691969999999941
21
-58.5741319999999988
0
LINE
8
B.Cu
6
CONTINUOUS
10
102.9691969999999941
20
-58.5741319999999988
11
102.9091820000000013
21
-58.4292429999999996
0
LINE
8
B.Cu
6
CONTINUOUS
10
102.9091820000000013
20
-58.4292429999999996
11
102.8785859999999985
21
-58.2754289999999955
0
LINE
8
B.Cu
6
CONTINUOUS
10
102.8785859999999985
20
-58.2754289999999955
11
102.8785859999999985
21
-58.1186009999999982
0
LINE
8
B.Cu
6
CONTINUOUS
10
102.8785859999999985
20
-58.1186009999999982
11
102.9091820000000013
21
-57.9647869999999941
0
LINE
8
B.Cu
6
CONTINUOUS
10
102.9091820000000013
20
-57.9647869999999941
11
102.9691969999999941
21
-57.8198979999999949
0
LINE
8
B.Cu
6
CONTINUOUS
10
102.9691969999999941
20
-57.8198979999999949
11
103.0563259999999985
21
-57.6894999999999953
0
LINE
8
B.Cu
6
CONTINUOUS
10
103.0563259999999985
20
-57.6894999999999953
11
103.1672189999999887
21
-57.5786069999999981
0
LINE
8
B.Cu
6
CONTINUOUS
10
103.1672189999999887
20
-57.5786069999999981
11
103.2976169999999883
21
-57.4914780000000007
0
LINE
8
B.Cu
6
CONTINUOUS
10
103.2976169999999883
20
-57.4914780000000007
11
103.4425059999999945
21
-57.4314630000000008
0
LINE
8
B.Cu
6
CONTINUOUS
10
103.4425059999999945
20
-57.4314630000000008
11
103.5963199999999915
21
-57.4008669999999981
0
LINE
8
B.Cu
6
CONTINUOUS
10
103.5963199999999915
20
-57.4008669999999981
11
103.7531479999999959
21
-57.4008669999999981
0
LINE
8
B.Cu
6
CONTINUOUS
10
103.7531479999999959
20
-57.4008669999999981
11
103.9069619999999929
21
-57.4314630000000008
0
LINE
8
B.Cu
6
CONTINUOUS
10
92.5950189999999935
20
-54.7400749999999974
11
92.7761309999999924
21
-54.8150939999999949
0
LINE
8
B.Cu
6
CONTINUOUS
10
92.7761309999999924
20
-54.8150939999999949
11
92.9391269999999992
21
-54.924004999999994
0
LINE
8
B.Cu
6
CONTINUOUS
10
92.9391269999999992
20
-54.924004999999994
11
93.0777439999999956
21
-55.0626219999999975
0
LINE
8
B.Cu
6
CONTINUOUS
10
93.0777439999999956
20
-55.0626219999999975
11
93.1866550000000018
21
-55.2256179999999972
0
LINE
8
B.Cu
6
CONTINUOUS
10
93.1866550000000018
20
-55.2256179999999972
11
93.2616739999999993
21
-55.406729999999996
0
LINE
8
B.Cu
6
CONTINUOUS
10
93.2616739999999993
20
-55.406729999999996
11
93.2999190000000027
21
-55.5989979999999946
0
LINE
8
B.Cu
6
CONTINUOUS
10
93.2999190000000027
20
-55.5989979999999946
11
93.2999190000000027
21
-55.7950319999999991
0
LINE
8
B.Cu
6
CONTINUOUS
10
93.2999190000000027
20
-55.7950319999999991
11
93.2616739999999993
21
-55.9872999999999976
0
LINE
8
B.Cu
6
CONTINUOUS
10
93.2616739999999993
20
-55.9872999999999976
11
93.1866550000000018
21
-56.1684119999999965
0
LINE
8
B.Cu
6
CONTINUOUS
10
93.1866550000000018
20
-56.1684119999999965
11
93.0777439999999956
21
-56.3314079999999962
0
LINE
8
B.Cu
6
CONTINUOUS
10
93.0777439999999956
20
-56.3314079999999962
11
92.9391269999999992
21
-56.4700249999999997
0
LINE
8
B.Cu
6
CONTINUOUS
10
92.9391269999999992
20
-56.4700249999999997
11
92.7761309999999924
21
-56.5789359999999988
0
LINE
8
B.Cu
6
CONTINUOUS
10
92.7761309999999924
20
-56.5789359999999988
11
92.5950189999999935
21
-56.6539549999999963
0
LINE
8
B.Cu
6
CONTINUOUS
10
92.5950189999999935
20
-56.6539549999999963
11
92.402750999999995
21
-56.6921999999999997
0
LINE
8
B.Cu
6
CONTINUOUS
10
92.402750999999995
20
-56.6921999999999997
11
92.2067169999999976
21
-56.6921999999999997
0
LINE
8
B.Cu
6
CONTINUOUS
10
92.2067169999999976
20
-56.6921999999999997
11
92.014448999999999
21
-56.6539549999999963
0
LINE
8
B.Cu
6
CONTINUOUS
10
92.014448999999999
20
-56.6539549999999963
11
91.8333370000000002
21
-56.5789359999999988
0
LINE
8
B.Cu
6
CONTINUOUS
10
91.8333370000000002
20
-56.5789359999999988
11
91.6703409999999934
21
-56.4700249999999997
0
LINE
8
B.Cu
6
CONTINUOUS
10
91.6703409999999934
20
-56.4700249999999997
11
91.531723999999997
21
-56.3314079999999962
0
LINE
8
B.Cu
6
CONTINUOUS
10
91.531723999999997
20
-56.3314079999999962
11
91.4228129999999908
21
-56.1684119999999965
0
LINE
8
B.Cu
6
CONTINUOUS
10
91.4228129999999908
20
-56.1684119999999965
11
91.3477939999999933
21
-55.9872999999999976
0
LINE
8
B.Cu
6
CONTINUOUS
10
91.3477939999999933
20
-55.9872999999999976
11
91.3095489999999899
21
-55.7950319999999991
0
LINE
8
B.Cu
6
CONTINUOUS
10
91.3095489999999899
20
-55.7950319999999991
11
91.3095489999999899
21
-55.5989979999999946
0
LINE
8
B.Cu
6
CONTINUOUS
10
91.3095489999999899
20
-55.5989979999999946
11
91.3477939999999933
21
-55.406729999999996
0
LINE
8
B.Cu
6
CONTINUOUS
10
91.3477939999999933
20
-55.406729999999996
11
91.4228129999999908
21
-55.2256179999999972
0
LINE
8
B.Cu
6
CONTINUOUS
10
91.4228129999999908
20
-55.2256179999999972
11
91.531723999999997
21
-55.0626219999999975
0
LINE
8
B.Cu
6
CONTINUOUS
10
91.531723999999997
20
-55.0626219999999975
11
91.6703409999999934
21
-54.924004999999994
0
LINE
8
B.Cu
6
CONTINUOUS
10
91.6703409999999934
20
-54.924004999999994
11
91.8333370000000002
21
-54.8150939999999949
0
LINE
8
B.Cu
6
CONTINUOUS
10
91.8333370000000002
20
-54.8150939999999949
11
92.014448999999999
21
-54.7400749999999974
0
LINE
8
B.Cu
6
CONTINUOUS
10
92.014448999999999
20
-54.7400749999999974
11
92.2067169999999976
21
-54.7018300000000011
0
LINE
8
B.Cu
6
CONTINUOUS
10
92.2067169999999976
20
-54.7018300000000011
11
92.402750999999995
21
-54.7018300000000011
0
LINE
8
B.Cu
6
CONTINUOUS
10
92.402750999999995
20
-54.7018300000000011
11
92.5950189999999935
21
-54.7400749999999974
0
LINE
8
B.Cu
6
CONTINUOUS
10
107.8350189999999884
20
-54.7400749999999974
11
108.0161310000000014
21
-54.8150939999999949
0
LINE
8
B.Cu
6
CONTINUOUS
10
108.0161310000000014
20
-54.8150939999999949
11
108.179126999999994
21
-54.924004999999994
0
LINE
8
B.Cu
6
CONTINUOUS
10
108.179126999999994
20
-54.924004999999994
11
108.3177439999999905
21
-55.0626219999999975
0
LINE
8
B.Cu
6
CONTINUOUS
10
108.3177439999999905
20
-55.0626219999999975
11
108.4266549999999967
21
-55.2256179999999972
0
LINE
8
B.Cu
6
CONTINUOUS
10
108.4266549999999967
20
-55.2256179999999972
11
108.5016739999999942
21
-55.406729999999996
0
LINE
8
B.Cu
6
CONTINUOUS
10
108.5016739999999942
20
-55.406729999999996
11
108.5399189999999976
21
-55.5989979999999946
0
LINE
8
B.Cu
6
CONTINUOUS
10
108.5399189999999976
20
-55.5989979999999946
11
108.5399189999999976
21
-55.7950319999999991
0
LINE
8
B.Cu
6
CONTINUOUS
10
108.5399189999999976
20
-55.7950319999999991
11
108.5016739999999942
21
-55.9872999999999976
0
LINE
8
B.Cu
6
CONTINUOUS
10
108.5016739999999942
20
-55.9872999999999976
11
108.4266549999999967
21
-56.1684119999999965
0
LINE
8
B.Cu
6
CONTINUOUS
10
108.4266549999999967
20
-56.1684119999999965
11
108.3177439999999905
21
-56.3314079999999962
0
LINE
8
B.Cu
6
CONTINUOUS
10
108.3177439999999905
20
-56.3314079999999962
11
108.179126999999994
21
-56.4700249999999997
0
LINE
8
B.Cu
6
CONTINUOUS
10
108.179126999999994
20
-56.4700249999999997
11
108.0161310000000014
21
-56.5789359999999988
0
LINE
8
B.Cu
6
CONTINUOUS
10
108.0161310000000014
20
-56.5789359999999988
11
107.8350189999999884
21
-56.6539549999999963
0
LINE
8
B.Cu
6
CONTINUOUS
10
107.8350189999999884
20
-56.6539549999999963
11
107.6427509999999899
21
-56.6921999999999997
0
LINE
8
B.Cu
6
CONTINUOUS
10
107.6427509999999899
20
-56.6921999999999997
11
107.4467169999999925
21
-56.6921999999999997
0
LINE
8
B.Cu
6
CONTINUOUS
10
107.4467169999999925
20
-56.6921999999999997
11
107.2544489999999939
21
-56.6539549999999963
0
LINE
8
B.Cu
6
CONTINUOUS
10
107.2544489999999939
20
-56.6539549999999963
11
107.0733369999999951
21
-56.5789359999999988
0
LINE
8
B.Cu
6
CONTINUOUS
10
107.0733369999999951
20
-56.5789359999999988
11
106.9103409999999883
21
-56.4700249999999997
0
LINE
8
B.Cu
6
CONTINUOUS
10
106.9103409999999883
20
-56.4700249999999997
11
106.7717239999999919
21
-56.3314079999999962
0
LINE
8
B.Cu
6
CONTINUOUS
10
106.7717239999999919
20
-56.3314079999999962
11
106.6628129999999999
21
-56.1684119999999965
0
LINE
8
B.Cu
6
CONTINUOUS
10
106.6628129999999999
20
-56.1684119999999965
11
106.5877939999999882
21
-55.9872999999999976
0
LINE
8
B.Cu
6
CONTINUOUS
10
106.5877939999999882
20
-55.9872999999999976
11
106.549548999999999
21
-55.7950319999999991
0
LINE
8
B.Cu
6
CONTINUOUS
10
106.549548999999999
20
-55.7950319999999991
11
106.549548999999999
21
-55.5989979999999946
0
LINE
8
B.Cu
6
CONTINUOUS
10
106.549548999999999
20
-55.5989979999999946
11
106.5877939999999882
21
-55.406729999999996
0
LINE
8
B.Cu
6
CONTINUOUS
10
106.5877939999999882
20
-55.406729999999996
11
106.6628129999999999
21
-55.2256179999999972
0
LINE
8
B.Cu
6
CONTINUOUS
10
106.6628129999999999
20
-55.2256179999999972
11
106.7717239999999919
21
-55.0626219999999975
0
LINE
8
B.Cu
6
CONTINUOUS
10
106.7717239999999919
20
-55.0626219999999975
11
106.9103409999999883
21
-54.924004999999994
0
LINE
8
B.Cu
6
CONTINUOUS
10
106.9103409999999883
20
-54.924004999999994
11
107.0733369999999951
21
-54.8150939999999949
0
LINE
8
B.Cu
6
CONTINUOUS
10
107.0733369999999951
20
-54.8150939999999949
11
107.2544489999999939
21
-54.7400749999999974
0
LINE
8
B.Cu
6
CONTINUOUS
10
107.2544489999999939
20
-54.7400749999999974
11
107.4467169999999925
21
-54.7018300000000011
0
LINE
8
B.Cu
6
CONTINUOUS
10
107.4467169999999925
20
-54.7018300000000011
11
107.6427509999999899
21
-54.7018300000000011
0
LINE
8
B.Cu
6
CONTINUOUS
10
107.6427509999999899
20
-54.7018300000000011
11
107.8350189999999884
21
-54.7400749999999974
0
CIRCLE
8
B.Cu
10
107.5447339999999912
20
-55.6970150000000004
40
0.175
0
CIRCLE
8
B.Cu
10
92.3047339999999963
20
-55.6970150000000004
40
0.175
0
LINE
8
B.Cu
6
CONTINUOUS
10
106.9147339999999957
20
-71.9970149999999904
11
107.51473399999999
21
-71.9970149999999904
0
ARC
8
B.Cu
10
107.51473399999999
20
-71.4470149999999933
40
0.5499999999999999
50
-90.00000000
51
90.00000000
0
LINE
8
B.Cu
6
CONTINUOUS
10
107.51473399999999
20
-70.8970149999999961
11
106.9147339999999957
21
-70.8970149999999961
0
ARC
8
B.Cu
10
106.9147339999999957
20
-71.4470149999999933
40
0.5499999999999999
50
90.00000000
51
270.00000000
0
LINE
8
B.Cu
6
CONTINUOUS
10
110.7147339999999929
20
-71.9970149999999904
11
111.3147340000000014
21
-71.9970149999999904
0
ARC
8
B.Cu
10
111.3147340000000014
20
-71.4470149999999933
40
0.5499999999999999
50
-90.00000000
51
90.00000000
0
LINE
8
B.Cu
6
CONTINUOUS
10
111.3147340000000014
20
-70.8970149999999961
11
110.7147339999999929
21
-70.8970149999999961
0
ARC
8
B.Cu
10
110.7147339999999929
20
-71.4470149999999933
40
0.5499999999999999
50
90.00000000
51
270.00000000
0
LINE
8
B.Cu
6
CONTINUOUS
10
106.9147339999999957
20
-63.357014999999997
11
107.51473399999999
21
-63.357014999999997
0
ARC
8
B.Cu
10
107.51473399999999
20
-62.8070149999999998
40
0.5499999999999999
50
-90.00000000
51
90.00000000
0
LINE
8
B.Cu
6
CONTINUOUS
10
107.51473399999999
20
-62.2570149999999956
11
106.9147339999999957
21
-62.2570149999999956
0
ARC
8
B.Cu
10
106.9147339999999957
20
-62.8070149999999998
40
0.5499999999999999
50
90.00000000
51
270.00000000
0
LINE
8
B.Cu
6
CONTINUOUS
10
110.7147339999999929
20
-63.357014999999997
11
111.3147340000000014
21
-63.357014999999997
0
ARC
8
B.Cu
10
111.3147340000000014
20
-62.8070149999999998
40
0.5499999999999999
50
-90.00000000
51
90.00000000
0
LINE
8
B.Cu
6
CONTINUOUS
10
111.3147340000000014
20
-62.2570149999999956
11
110.7147339999999929
21
-62.2570149999999956
0
ARC
8
B.Cu
10
110.7147339999999929
20
-62.8070149999999998
40
0.5499999999999999
50
90.00000000
51
270.00000000
0
CIRCLE
8
B.Cu
10
103.6747340000000008
20
-58.1970150000000004
40
0.4
0
CIRCLE
8
B.Cu
10
103.6747340000000008
20
-58.1970150000000004
40
0.175
0
CIRCLE
8
B.Cu
10
107.5447339999999912
20
-55.6970150000000004
40
0.175
0
CIRCLE
8
B.Cu
10
92.3047339999999963
20
-55.6970150000000004
40
0.175
0
LINE
8
B.Cu
6
CONTINUOUS
10
106.9147339999999957
20
-71.7470149999999904
11
107.51473399999999
21
-71.7470149999999904
0
ARC
8
B.Cu
10
107.51473399999999
20
-71.4470149999999933
40
0.3
50
-90.00000000
51
90.00000000
0
LINE
8
B.Cu
6
CONTINUOUS
10
107.51473399999999
20
-71.1470149999999961
11
106.9147339999999957
21
-71.1470149999999961
0
ARC
8
B.Cu
10
106.9147339999999957
20
-71.4470149999999933
40
0.3
50
90.00000000
51
270.00000000
0
LINE
8
B.Cu
6
CONTINUOUS
10
110.7147339999999929
20
-71.7470149999999904
11
111.3147340000000014
21
-71.7470149999999904
0
ARC
8
B.Cu
10
111.3147340000000014
20
-71.4470149999999933
40
0.3
50
-90.00000000
51
90.00000000
0
LINE
8
B.Cu
6
CONTINUOUS
10
111.3147340000000014
20
-71.1470149999999961
11
110.7147339999999929
21
-71.1470149999999961
0
ARC
8
B.Cu
10
110.7147339999999929
20
-71.4470149999999933
40
0.3
50
90.00000000
51
270.00000000
0
LINE
8
B.Cu
6
CONTINUOUS
10
106.9147339999999957
20
-63.107014999999997
11
107.51473399999999
21
-63.107014999999997
0
ARC
8
B.Cu
10
107.51473399999999
20
-62.8070149999999998
40
0.3
50
-90.00000000
51
90.00000000
0
LINE
8
B.Cu
6
CONTINUOUS
10
107.51473399999999
20
-62.5070149999999956
11
106.9147339999999957
21
-62.5070149999999956
0
ARC
8
B.Cu
10
106.9147339999999957
20
-62.8070149999999998
40
0.3
50
90.00000000
51
270.00000000
0
LINE
8
B.Cu
6
CONTINUOUS
10
110.7147339999999929
20
-63.107014999999997
11
111.3147340000000014
21
-63.107014999999997
0
ARC
8
B.Cu
10
111.3147340000000014
20
-62.8070149999999998
40
0.3
50
-90.00000000
51
90.00000000
0
LINE
8
B.Cu
6
CONTINUOUS
10
111.3147340000000014
20
-62.5070149999999956
11
110.7147339999999929
21
-62.5070149999999956
0
ARC
8
B.Cu
10
110.7147339999999929
20
-62.8070149999999998
40
0.3
50
90.00000000
51
270.00000000
  0
ENDSEC
  0
EOF
