  0
SECTION
  2
HEADER
  9
$ANGBASE
  50
0.0
  9
$ANGDIR
  70
1
  9
$MEASUREMENT
  70
1
  9
$INSUNITS
  70
4
  0
ENDSEC
  0
SECTION
  2
TABLES
  0
TABLE
  2
LTYPE
  70
4
  0
LTYPE
  5
40F
  2
CONTINUOUS
  70
0
  3
Solid line
  72
65
  73
0
  40
0.0
  0
LTYPE
  5
410
  2
DASHDOT
 70
0
  3
Dash Dot ____ _ ____ _
 72
65
 73
4
 40
2.0
 49
1.25
 49
-0.25
 49
0.25
 49
-0.25
  0
LTYPE
  5
411
  2
DASHED
 70
0
  3
Dashed __ __ __ __ __
 72
65
 73
2
 40
0.75
 49
0.5
 49
-0.25
  0
LTYPE
  5
43B
  2
DOTTED
 70
0
  3
Dotted .  .  .  .
 72
65
 73
2
 40
0.2
 49
0.0
 49
-0.2
  0
ENDTAB
  0
TABLE
  2
STYLE
  70
4
  0
STYLE
  2
KICAD
  70
0
  40
0
  41
1
  42
1
  50
0
  71
0
  3
isocp.shx
  0
STYLE
  2
KICADB
  70
0
  40
0
  41
1
  42
1
  50
0
  71
0
  3
isocp.shx
  0
STYLE
  2
KICADI
  70
0
  40
0
  41
1
  42
1
  50
15
  71
0
  3
isocp.shx
  0
STYLE
  2
KICADBI
  70
0
  40
0
  41
1
  42
1
  50
15
  71
0
  3
isocp.shx
  0
ENDTAB
  0
TABLE
  2
LAYER
  70
4
  0
LAYER
  2
F.Cu
  70
0
  62
13
  420
13120564
  6
CONTINUOUS
  0
LAYER
  2
B.Cu
  70
0
  62
153
  420
5078980
  6
CONTINUOUS
  0
LAYER
  2
F.Paste
  70
0
  62
253
  420
11837594
  6
CONTINUOUS
  0
LAYER
  2
Edge.Cuts
  70
0
  62
254
  420
13685453
  6
CONTINUOUS
  0
ENDTAB
  0
ENDSEC
  0
SECTION
  2
ENTITIES
0
LINE
8
F.Paste
6
CONTINUOUS
10
107.5865229999999997
20
-70.9017199999999974
11
107.7252099999999899
21
-70.938880999999995
0
LINE
8
F.Paste
6
CONTINUOUS
10
107.7252099999999899
20
-70.938880999999995
11
107.8495530000000002
21
-71.0106710000000021
0
LINE
8
F.Paste
6
CONTINUOUS
10
107.8495530000000002
20
-71.0106710000000021
11
107.9510779999999954
21
-71.1121959999999973
0
LINE
8
F.Paste
6
CONTINUOUS
10
107.9510779999999954
20
-71.1121959999999973
11
108.0228679999999883
21
-71.2365389999999934
0
LINE
8
F.Paste
6
CONTINUOUS
10
108.0228679999999883
20
-71.2365389999999934
11
108.0600290000000001
21
-71.3752259999999978
0
LINE
8
F.Paste
6
CONTINUOUS
10
108.0600290000000001
20
-71.3752259999999978
11
108.0600290000000001
21
-71.5188040000000029
0
LINE
8
F.Paste
6
CONTINUOUS
10
108.0600290000000001
20
-71.5188040000000029
11
108.0228679999999883
21
-71.6574909999999932
0
LINE
8
F.Paste
6
CONTINUOUS
10
108.0228679999999883
20
-71.6574909999999932
11
107.9510779999999954
21
-71.7818340000000035
0
LINE
8
F.Paste
6
CONTINUOUS
10
107.9510779999999954
20
-71.7818340000000035
11
107.8495530000000002
21
-71.8833589999999987
0
LINE
8
F.Paste
6
CONTINUOUS
10
107.8495530000000002
20
-71.8833589999999987
11
107.7252099999999899
21
-71.9551489999999916
0
LINE
8
F.Paste
6
CONTINUOUS
10
107.7252099999999899
20
-71.9551489999999916
11
107.5865229999999997
21
-71.9923100000000034
0
LINE
8
F.Paste
6
CONTINUOUS
10
107.5865229999999997
20
-71.9923100000000034
11
107.51473399999999
21
-71.9970149999999904
0
LINE
8
F.Paste
6
CONTINUOUS
10
107.51473399999999
20
-71.9970149999999904
11
106.9147339999999957
21
-71.9970149999999904
0
LINE
8
F.Paste
6
CONTINUOUS
10
106.9147339999999957
20
-71.9970149999999904
11
106.8429450000000003
21
-71.9923100000000034
0
LINE
8
F.Paste
6
CONTINUOUS
10
106.8429450000000003
20
-71.9923100000000034
11
106.7042579999999958
21
-71.9551489999999916
0
LINE
8
F.Paste
6
CONTINUOUS
10
106.7042579999999958
20
-71.9551489999999916
11
106.5799149999999997
21
-71.8833589999999987
0
LINE
8
F.Paste
6
CONTINUOUS
10
106.5799149999999997
20
-71.8833589999999987
11
106.4783899999999903
21
-71.7818340000000035
0
LINE
8
F.Paste
6
CONTINUOUS
10
106.4783899999999903
20
-71.7818340000000035
11
106.4065999999999974
21
-71.6574909999999932
0
LINE
8
F.Paste
6
CONTINUOUS
10
106.4065999999999974
20
-71.6574909999999932
11
106.3694389999999999
21
-71.5188040000000029
0
LINE
8
F.Paste
6
CONTINUOUS
10
106.3694389999999999
20
-71.5188040000000029
11
106.3694389999999999
21
-71.3752259999999978
0
LINE
8
F.Paste
6
CONTINUOUS
10
106.3694389999999999
20
-71.3752259999999978
11
106.4065999999999974
21
-71.2365389999999934
0
LINE
8
F.Paste
6
CONTINUOUS
10
106.4065999999999974
20
-71.2365389999999934
11
106.4783899999999903
21
-71.1121959999999973
0
LINE
8
F.Paste
6
CONTINUOUS
10
106.4783899999999903
20
-71.1121959999999973
11
106.5799149999999997
21
-71.0106710000000021
0
LINE
8
F.Paste
6
CONTINUOUS
10
106.5799149999999997
20
-71.0106710000000021
11
106.7042579999999958
21
-70.938880999999995
0
LINE
8
F.Paste
6
CONTINUOUS
10
106.7042579999999958
20
-70.938880999999995
11
106.8429450000000003
21
-70.9017199999999974
0
LINE
8
F.Paste
6
CONTINUOUS
10
106.8429450000000003
20
-70.9017199999999974
11
106.9147339999999957
21
-70.8970149999999961
0
LINE
8
F.Paste
6
CONTINUOUS
10
106.9147339999999957
20
-70.8970149999999961
11
107.51473399999999
21
-70.8970149999999961
0
LINE
8
F.Paste
6
CONTINUOUS
10
107.51473399999999
20
-70.8970149999999961
11
107.5865229999999997
21
-70.9017199999999974
0
LINE
8
F.Paste
6
CONTINUOUS
10
111.3865229999999968
20
-70.9017199999999974
11
111.5252100000000013
21
-70.938880999999995
0
LINE
8
F.Paste
6
CONTINUOUS
10
111.5252100000000013
20
-70.938880999999995
11
111.6495529999999974
21
-71.0106710000000021
0
LINE
8
F.Paste
6
CONTINUOUS
10
111.6495529999999974
20
-71.0106710000000021
11
111.7510779999999926
21
-71.1121959999999973
0
LINE
8
F.Paste
6
CONTINUOUS
10
111.7510779999999926
20
-71.1121959999999973
11
111.8228679999999997
21
-71.2365389999999934
0
LINE
8
F.Paste
6
CONTINUOUS
10
111.8228679999999997
20
-71.2365389999999934
11
111.8600289999999973
21
-71.3752259999999978
0
LINE
8
F.Paste
6
CONTINUOUS
10
111.8600289999999973
20
-71.3752259999999978
11
111.8600289999999973
21
-71.5188040000000029
0
LINE
8
F.Paste
6
CONTINUOUS
10
111.8600289999999973
20
-71.5188040000000029
11
111.8228679999999997
21
-71.6574909999999932
0
LINE
8
F.Paste
6
CONTINUOUS
10
111.8228679999999997
20
-71.6574909999999932
11
111.7510779999999926
21
-71.7818340000000035
0
LINE
8
F.Paste
6
CONTINUOUS
10
111.7510779999999926
20
-71.7818340000000035
11
111.6495529999999974
21
-71.8833589999999987
0
LINE
8
F.Paste
6
CONTINUOUS
10
111.6495529999999974
20
-71.8833589999999987
11
111.5252100000000013
21
-71.9551489999999916
0
LINE
8
F.Paste
6
CONTINUOUS
10
111.5252100000000013
20
-71.9551489999999916
11
111.3865229999999968
21
-71.9923100000000034
0
LINE
8
F.Paste
6
CONTINUOUS
10
111.3865229999999968
20
-71.9923100000000034
11
111.3147340000000014
21
-71.9970149999999904
0
LINE
8
F.Paste
6
CONTINUOUS
10
111.3147340000000014
20
-71.9970149999999904
11
110.7147339999999929
21
-71.9970149999999904
0
LINE
8
F.Paste
6
CONTINUOUS
10
110.7147339999999929
20
-71.9970149999999904
11
110.6429449999999974
21
-71.9923100000000034
0
LINE
8
F.Paste
6
CONTINUOUS
10
110.6429449999999974
20
-71.9923100000000034
11
110.504257999999993
21
-71.9551489999999916
0
LINE
8
F.Paste
6
CONTINUOUS
10
110.504257999999993
20
-71.9551489999999916
11
110.3799149999999969
21
-71.8833589999999987
0
LINE
8
F.Paste
6
CONTINUOUS
10
110.3799149999999969
20
-71.8833589999999987
11
110.2783900000000017
21
-71.7818340000000035
0
LINE
8
F.Paste
6
CONTINUOUS
10
110.2783900000000017
20
-71.7818340000000035
11
110.2065999999999946
21
-71.6574909999999932
0
LINE
8
F.Paste
6
CONTINUOUS
10
110.2065999999999946
20
-71.6574909999999932
11
110.169438999999997
21
-71.5188040000000029
0
LINE
8
F.Paste
6
CONTINUOUS
10
110.169438999999997
20
-71.5188040000000029
11
110.169438999999997
21
-71.3752259999999978
0
LINE
8
F.Paste
6
CONTINUOUS
10
110.169438999999997
20
-71.3752259999999978
11
110.2065999999999946
21
-71.2365389999999934
0
LINE
8
F.Paste
6
CONTINUOUS
10
110.2065999999999946
20
-71.2365389999999934
11
110.2783900000000017
21
-71.1121959999999973
0
LINE
8
F.Paste
6
CONTINUOUS
10
110.2783900000000017
20
-71.1121959999999973
11
110.3799149999999969
21
-71.0106710000000021
0
LINE
8
F.Paste
6
CONTINUOUS
10
110.3799149999999969
20
-71.0106710000000021
11
110.504257999999993
21
-70.938880999999995
0
LINE
8
F.Paste
6
CONTINUOUS
10
110.504257999999993
20
-70.938880999999995
11
110.6429449999999974
21
-70.9017199999999974
0
LINE
8
F.Paste
6
CONTINUOUS
10
110.6429449999999974
20
-70.9017199999999974
11
110.7147339999999929
21
-70.8970149999999961
0
LINE
8
F.Paste
6
CONTINUOUS
10
110.7147339999999929
20
-70.8970149999999961
11
111.3147340000000014
21
-70.8970149999999961
0
LINE
8
F.Paste
6
CONTINUOUS
10
111.3147340000000014
20
-70.8970149999999961
11
111.3865229999999968
21
-70.9017199999999974
0
LINE
8
F.Paste
6
CONTINUOUS
10
107.6344199999999915
20
-69.6393849999999901
11
107.6871390000000019
21
-69.6746100000000013
0
LINE
8
F.Paste
6
CONTINUOUS
10
107.6871390000000019
20
-69.6746100000000013
11
107.7223639999999989
21
-69.7273289999999974
0
LINE
8
F.Paste
6
CONTINUOUS
10
107.7223639999999989
20
-69.7273289999999974
11
107.7347339999999889
21
-69.7895149999999944
0
LINE
8
F.Paste
6
CONTINUOUS
10
107.7347339999999889
20
-69.7895149999999944
11
107.7347339999999889
21
-70.1145149999999973
0
LINE
8
F.Paste
6
CONTINUOUS
10
107.7347339999999889
20
-70.1145149999999973
11
107.7223639999999989
21
-70.1767009999999942
0
LINE
8
F.Paste
6
CONTINUOUS
10
107.7223639999999989
20
-70.1767009999999942
11
107.6871390000000019
21
-70.2294199999999904
0
LINE
8
F.Paste
6
CONTINUOUS
10
107.6871390000000019
20
-70.2294199999999904
11
107.6344199999999915
21
-70.2646450000000016
0
LINE
8
F.Paste
6
CONTINUOUS
10
107.6344199999999915
20
-70.2646450000000016
11
107.5722339999999946
21
-70.2770149999999916
0
LINE
8
F.Paste
6
CONTINUOUS
10
107.5722339999999946
20
-70.2770149999999916
11
104.8772340000000014
21
-70.2770149999999916
0
LINE
8
F.Paste
6
CONTINUOUS
10
104.8772340000000014
20
-70.2770149999999916
11
104.8150479999999902
21
-70.2646450000000016
0
LINE
8
F.Paste
6
CONTINUOUS
10
104.8150479999999902
20
-70.2646450000000016
11
104.762328999999994
21
-70.2294199999999904
0
LINE
8
F.Paste
6
CONTINUOUS
10
104.762328999999994
20
-70.2294199999999904
11
104.7271039999999971
21
-70.1767009999999942
0
LINE
8
F.Paste
6
CONTINUOUS
10
104.7271039999999971
20
-70.1767009999999942
11
104.7147339999999929
21
-70.1145149999999973
0
LINE
8
F.Paste
6
CONTINUOUS
10
104.7147339999999929
20
-70.1145149999999973
11
104.7147339999999929
21
-69.7895149999999944
0
LINE
8
F.Paste
6
CONTINUOUS
10
104.7147339999999929
20
-69.7895149999999944
11
104.7271039999999971
21
-69.7273289999999974
0
LINE
8
F.Paste
6
CONTINUOUS
10
104.7271039999999971
20
-69.7273289999999974
11
104.762328999999994
21
-69.6746100000000013
0
LINE
8
F.Paste
6
CONTINUOUS
10
104.762328999999994
20
-69.6746100000000013
11
104.8150479999999902
21
-69.6393849999999901
0
LINE
8
F.Paste
6
CONTINUOUS
10
104.8150479999999902
20
-69.6393849999999901
11
104.8772340000000014
21
-69.6270150000000001
0
LINE
8
F.Paste
6
CONTINUOUS
10
104.8772340000000014
20
-69.6270150000000001
11
107.5722339999999946
21
-69.6270150000000001
0
LINE
8
F.Paste
6
CONTINUOUS
10
107.5722339999999946
20
-69.6270150000000001
11
107.6344199999999915
21
-69.6393849999999901
0
LINE
8
F.Paste
6
CONTINUOUS
10
107.6174439999999919
20
-68.2814779999999928
11
107.6790839999999889
21
-68.3226650000000006
0
LINE
8
F.Paste
6
CONTINUOUS
10
107.6790839999999889
20
-68.3226650000000006
11
107.7202709999999968
21
-68.3843049999999977
0
LINE
8
F.Paste
6
CONTINUOUS
10
107.7202709999999968
20
-68.3843049999999977
11
107.7347339999999889
21
-68.4570149999999984
0
LINE
8
F.Paste
6
CONTINUOUS
10
107.7347339999999889
20
-68.4570149999999984
11
107.7347339999999889
21
-68.8370149999999938
0
LINE
8
F.Paste
6
CONTINUOUS
10
107.7347339999999889
20
-68.8370149999999938
11
107.7202709999999968
21
-68.9097249999999946
0
LINE
8
F.Paste
6
CONTINUOUS
10
107.7202709999999968
20
-68.9097249999999946
11
107.6790839999999889
21
-68.9713649999999916
0
LINE
8
F.Paste
6
CONTINUOUS
10
107.6790839999999889
20
-68.9713649999999916
11
107.6174439999999919
21
-69.0125519999999995
0
LINE
8
F.Paste
6
CONTINUOUS
10
107.6174439999999919
20
-69.0125519999999995
11
107.5447339999999912
21
-69.0270149999999916
0
LINE
8
F.Paste
6
CONTINUOUS
10
107.5447339999999912
20
-69.0270149999999916
11
104.9047339999999906
21
-69.0270149999999916
0
LINE
8
F.Paste
6
CONTINUOUS
10
104.9047339999999906
20
-69.0270149999999916
11
104.8320239999999899
21
-69.0125519999999995
0
LINE
8
F.Paste
6
CONTINUOUS
10
104.8320239999999899
20
-69.0125519999999995
11
104.7703839999999929
21
-68.9713649999999916
0
LINE
8
F.Paste
6
CONTINUOUS
10
104.7703839999999929
20
-68.9713649999999916
11
104.7291969999999992
21
-68.9097249999999946
0
LINE
8
F.Paste
6
CONTINUOUS
10
104.7291969999999992
20
-68.9097249999999946
11
104.7147339999999929
21
-68.8370149999999938
0
LINE
8
F.Paste
6
CONTINUOUS
10
104.7147339999999929
20
-68.8370149999999938
11
104.7147339999999929
21
-68.4570149999999984
0
LINE
8
F.Paste
6
CONTINUOUS
10
104.7147339999999929
20
-68.4570149999999984
11
104.7291969999999992
21
-68.3843049999999977
0
LINE
8
F.Paste
6
CONTINUOUS
10
104.7291969999999992
20
-68.3843049999999977
11
104.7703839999999929
21
-68.3226650000000006
0
LINE
8
F.Paste
6
CONTINUOUS
10
104.7703839999999929
20
-68.3226650000000006
11
104.8320239999999899
21
-68.2814779999999928
0
LINE
8
F.Paste
6
CONTINUOUS
10
104.8320239999999899
20
-68.2814779999999928
11
104.9047339999999906
21
-68.2670150000000007
0
LINE
8
F.Paste
6
CONTINUOUS
10
104.9047339999999906
20
-68.2670150000000007
11
107.5447339999999912
21
-68.2670150000000007
0
LINE
8
F.Paste
6
CONTINUOUS
10
107.5447339999999912
20
-68.2670150000000007
11
107.6174439999999919
21
-68.2814779999999928
0
LINE
8
F.Paste
6
CONTINUOUS
10
97.4204050000000024
20
-67.2360449999999901
11
97.5015109999999936
21
-67.2902380000000022
0
LINE
8
F.Paste
6
CONTINUOUS
10
97.5015109999999936
20
-67.2902380000000022
11
97.5557039999999915
21
-67.3713439999999935
0
LINE
8
F.Paste
6
CONTINUOUS
10
97.5557039999999915
20
-67.3713439999999935
11
97.5747339999999923
21
-67.4670150000000035
0
LINE
8
F.Paste
6
CONTINUOUS
10
97.5747339999999923
20
-67.4670150000000035
11
97.5747339999999923
21
-68.367014999999995
0
LINE
8
F.Paste
6
CONTINUOUS
10
97.5747339999999923
20
-68.367014999999995
11
97.5557039999999915
21
-68.4626859999999908
0
LINE
8
F.Paste
6
CONTINUOUS
10
97.5557039999999915
20
-68.4626859999999908
11
97.5015109999999936
21
-68.5437919999999963
0
LINE
8
F.Paste
6
CONTINUOUS
10
97.5015109999999936
20
-68.5437919999999963
11
97.4204050000000024
21
-68.5979849999999942
0
LINE
8
F.Paste
6
CONTINUOUS
10
97.4204050000000024
20
-68.5979849999999942
11
97.3247339999999923
21
-68.617014999999995
0
LINE
8
F.Paste
6
CONTINUOUS
10
97.3247339999999923
20
-68.617014999999995
11
96.6247339999999895
21
-68.617014999999995
0
LINE
8
F.Paste
6
CONTINUOUS
10
96.6247339999999895
20
-68.617014999999995
11
96.5290629999999936
21
-68.5979849999999942
0
LINE
8
F.Paste
6
CONTINUOUS
10
96.5290629999999936
20
-68.5979849999999942
11
96.4479570000000024
21
-68.5437919999999963
0
LINE
8
F.Paste
6
CONTINUOUS
10
96.4479570000000024
20
-68.5437919999999963
11
96.3937639999999902
21
-68.4626859999999908
0
LINE
8
F.Paste
6
CONTINUOUS
10
96.3937639999999902
20
-68.4626859999999908
11
96.3747339999999895
21
-68.367014999999995
0
LINE
8
F.Paste
6
CONTINUOUS
10
96.3747339999999895
20
-68.367014999999995
11
96.3747339999999895
21
-67.4670150000000035
0
LINE
8
F.Paste
6
CONTINUOUS
10
96.3747339999999895
20
-67.4670150000000035
11
96.3937639999999902
21
-67.3713439999999935
0
LINE
8
F.Paste
6
CONTINUOUS
10
96.3937639999999902
20
-67.3713439999999935
11
96.4479570000000024
21
-67.2902380000000022
0
LINE
8
F.Paste
6
CONTINUOUS
10
96.4479570000000024
20
-67.2902380000000022
11
96.5290629999999936
21
-67.2360449999999901
0
LINE
8
F.Paste
6
CONTINUOUS
10
96.5290629999999936
20
-67.2360449999999901
11
96.6247339999999895
21
-67.2170150000000035
0
LINE
8
F.Paste
6
CONTINUOUS
10
96.6247339999999895
20
-67.2170150000000035
11
97.3247339999999923
21
-67.2170150000000035
0
LINE
8
F.Paste
6
CONTINUOUS
10
97.3247339999999923
20
-67.2170150000000035
11
97.4204050000000024
21
-67.2360449999999901
0
LINE
8
F.Paste
6
CONTINUOUS
10
99.4204050000000024
20
-67.2360449999999901
11
99.5015109999999936
21
-67.2902380000000022
0
LINE
8
F.Paste
6
CONTINUOUS
10
99.5015109999999936
20
-67.2902380000000022
11
99.5557039999999915
21
-67.3713439999999935
0
LINE
8
F.Paste
6
CONTINUOUS
10
99.5557039999999915
20
-67.3713439999999935
11
99.5747339999999923
21
-67.4670150000000035
0
LINE
8
F.Paste
6
CONTINUOUS
10
99.5747339999999923
20
-67.4670150000000035
11
99.5747339999999923
21
-68.367014999999995
0
LINE
8
F.Paste
6
CONTINUOUS
10
99.5747339999999923
20
-68.367014999999995
11
99.5557039999999915
21
-68.4626859999999908
0
LINE
8
F.Paste
6
CONTINUOUS
10
99.5557039999999915
20
-68.4626859999999908
11
99.5015109999999936
21
-68.5437919999999963
0
LINE
8
F.Paste
6
CONTINUOUS
10
99.5015109999999936
20
-68.5437919999999963
11
99.4204050000000024
21
-68.5979849999999942
0
LINE
8
F.Paste
6
CONTINUOUS
10
99.4204050000000024
20
-68.5979849999999942
11
99.3247339999999923
21
-68.617014999999995
0
LINE
8
F.Paste
6
CONTINUOUS
10
99.3247339999999923
20
-68.617014999999995
11
98.6247339999999895
21
-68.617014999999995
0
LINE
8
F.Paste
6
CONTINUOUS
10
98.6247339999999895
20
-68.617014999999995
11
98.5290629999999936
21
-68.5979849999999942
0
LINE
8
F.Paste
6
CONTINUOUS
10
98.5290629999999936
20
-68.5979849999999942
11
98.4479570000000024
21
-68.5437919999999963
0
LINE
8
F.Paste
6
CONTINUOUS
10
98.4479570000000024
20
-68.5437919999999963
11
98.3937639999999902
21
-68.4626859999999908
0
LINE
8
F.Paste
6
CONTINUOUS
10
98.3937639999999902
20
-68.4626859999999908
11
98.3747339999999895
21
-68.367014999999995
0
LINE
8
F.Paste
6
CONTINUOUS
10
98.3747339999999895
20
-68.367014999999995
11
98.3747339999999895
21
-67.4670150000000035
0
LINE
8
F.Paste
6
CONTINUOUS
10
98.3747339999999895
20
-67.4670150000000035
11
98.3937639999999902
21
-67.3713439999999935
0
LINE
8
F.Paste
6
CONTINUOUS
10
98.3937639999999902
20
-67.3713439999999935
11
98.4479570000000024
21
-67.2902380000000022
0
LINE
8
F.Paste
6
CONTINUOUS
10
98.4479570000000024
20
-67.2902380000000022
11
98.5290629999999936
21
-67.2360449999999901
0
LINE
8
F.Paste
6
CONTINUOUS
10
98.5290629999999936
20
-67.2360449999999901
11
98.6247339999999895
21
-67.2170150000000035
0
LINE
8
F.Paste
6
CONTINUOUS
10
98.6247339999999895
20
-67.2170150000000035
11
99.3247339999999923
21
-67.2170150000000035
0
LINE
8
F.Paste
6
CONTINUOUS
10
99.3247339999999923
20
-67.2170150000000035
11
99.4204050000000024
21
-67.2360449999999901
0
LINE
8
F.Paste
6
CONTINUOUS
10
107.6267039999999895
20
-67.2903359999999964
11
107.6834779999999938
21
-67.3282710000000009
0
LINE
8
F.Paste
6
CONTINUOUS
10
107.6834779999999938
20
-67.3282710000000009
11
107.7214129999999983
21
-67.385044999999991
0
LINE
8
F.Paste
6
CONTINUOUS
10
107.7214129999999983
20
-67.385044999999991
11
107.7347339999999889
21
-67.4520150000000029
0
LINE
8
F.Paste
6
CONTINUOUS
10
107.7347339999999889
20
-67.4520150000000029
11
107.7347339999999889
21
-67.8020149999999973
0
LINE
8
F.Paste
6
CONTINUOUS
10
107.7347339999999889
20
-67.8020149999999973
11
107.7214129999999983
21
-67.868984999999995
0
LINE
8
F.Paste
6
CONTINUOUS
10
107.7214129999999983
20
-67.868984999999995
11
107.6834779999999938
21
-67.9257589999999993
0
LINE
8
F.Paste
6
CONTINUOUS
10
107.6834779999999938
20
-67.9257589999999993
11
107.6267039999999895
21
-67.9636940000000038
0
LINE
8
F.Paste
6
CONTINUOUS
10
107.6267039999999895
20
-67.9636940000000038
11
107.5597339999999917
21
-67.9770149999999944
0
LINE
8
F.Paste
6
CONTINUOUS
10
107.5597339999999917
20
-67.9770149999999944
11
104.88973399999999
21
-67.9770149999999944
0
LINE
8
F.Paste
6
CONTINUOUS
10
104.88973399999999
20
-67.9770149999999944
11
104.8227639999999923
21
-67.9636940000000038
0
LINE
8
F.Paste
6
CONTINUOUS
10
104.8227639999999923
20
-67.9636940000000038
11
104.7659900000000022
21
-67.9257589999999993
0
LINE
8
F.Paste
6
CONTINUOUS
10
104.7659900000000022
20
-67.9257589999999993
11
104.7280549999999977
21
-67.868984999999995
0
LINE
8
F.Paste
6
CONTINUOUS
10
104.7280549999999977
20
-67.868984999999995
11
104.7147339999999929
21
-67.8020149999999973
0
LINE
8
F.Paste
6
CONTINUOUS
10
104.7147339999999929
20
-67.8020149999999973
11
104.7147339999999929
21
-67.4520150000000029
0
LINE
8
F.Paste
6
CONTINUOUS
10
104.7147339999999929
20
-67.4520150000000029
11
104.7280549999999977
21
-67.385044999999991
0
LINE
8
F.Paste
6
CONTINUOUS
10
104.7280549999999977
20
-67.385044999999991
11
104.7659900000000022
21
-67.3282710000000009
0
LINE
8
F.Paste
6
CONTINUOUS
10
104.7659900000000022
20
-67.3282710000000009
11
104.8227639999999923
21
-67.2903359999999964
0
LINE
8
F.Paste
6
CONTINUOUS
10
104.8227639999999923
20
-67.2903359999999964
11
104.88973399999999
21
-67.2770149999999916
0
LINE
8
F.Paste
6
CONTINUOUS
10
104.88973399999999
20
-67.2770149999999916
11
107.5597339999999917
21
-67.2770149999999916
0
LINE
8
F.Paste
6
CONTINUOUS
10
107.5597339999999917
20
-67.2770149999999916
11
107.6267039999999895
21
-67.2903359999999964
0
LINE
8
F.Paste
6
CONTINUOUS
10
107.6267039999999895
20
-66.2903359999999964
11
107.6834779999999938
21
-66.3282710000000009
0
LINE
8
F.Paste
6
CONTINUOUS
10
107.6834779999999938
20
-66.3282710000000009
11
107.7214129999999983
21
-66.385044999999991
0
LINE
8
F.Paste
6
CONTINUOUS
10
107.7214129999999983
20
-66.385044999999991
11
107.7347339999999889
21
-66.4520150000000029
0
LINE
8
F.Paste
6
CONTINUOUS
10
107.7347339999999889
20
-66.4520150000000029
11
107.7347339999999889
21
-66.8020149999999973
0
LINE
8
F.Paste
6
CONTINUOUS
10
107.7347339999999889
20
-66.8020149999999973
11
107.7214129999999983
21
-66.868984999999995
0
LINE
8
F.Paste
6
CONTINUOUS
10
107.7214129999999983
20
-66.868984999999995
11
107.6834779999999938
21
-66.9257589999999993
0
LINE
8
F.Paste
6
CONTINUOUS
10
107.6834779999999938
20
-66.9257589999999993
11
107.6267039999999895
21
-66.9636940000000038
0
LINE
8
F.Paste
6
CONTINUOUS
10
107.6267039999999895
20
-66.9636940000000038
11
107.5597339999999917
21
-66.9770149999999944
0
LINE
8
F.Paste
6
CONTINUOUS
10
107.5597339999999917
20
-66.9770149999999944
11
104.88973399999999
21
-66.9770149999999944
0
LINE
8
F.Paste
6
CONTINUOUS
10
104.88973399999999
20
-66.9770149999999944
11
104.8227639999999923
21
-66.9636940000000038
0
LINE
8
F.Paste
6
CONTINUOUS
10
104.8227639999999923
20
-66.9636940000000038
11
104.7659900000000022
21
-66.9257589999999993
0
LINE
8
F.Paste
6
CONTINUOUS
10
104.7659900000000022
20
-66.9257589999999993
11
104.7280549999999977
21
-66.868984999999995
0
LINE
8
F.Paste
6
CONTINUOUS
10
104.7280549999999977
20
-66.868984999999995
11
104.7147339999999929
21
-66.8020149999999973
0
LINE
8
F.Paste
6
CONTINUOUS
10
104.7147339999999929
20
-66.8020149999999973
11
104.7147339999999929
21
-66.4520150000000029
0
LINE
8
F.Paste
6
CONTINUOUS
10
104.7147339999999929
20
-66.4520150000000029
11
104.7280549999999977
21
-66.385044999999991
0
LINE
8
F.Paste
6
CONTINUOUS
10
104.7280549999999977
20
-66.385044999999991
11
104.7659900000000022
21
-66.3282710000000009
0
LINE
8
F.Paste
6
CONTINUOUS
10
104.7659900000000022
20
-66.3282710000000009
11
104.8227639999999923
21
-66.2903359999999964
0
LINE
8
F.Paste
6
CONTINUOUS
10
104.8227639999999923
20
-66.2903359999999964
11
104.88973399999999
21
-66.2770149999999916
0
LINE
8
F.Paste
6
CONTINUOUS
10
104.88973399999999
20
-66.2770149999999916
11
107.5597339999999917
21
-66.2770149999999916
0
LINE
8
F.Paste
6
CONTINUOUS
10
107.5597339999999917
20
-66.2770149999999916
11
107.6267039999999895
21
-66.2903359999999964
0
LINE
8
F.Paste
6
CONTINUOUS
10
97.4204050000000024
20
-65.3260449999999935
11
97.5015109999999936
21
-65.3802379999999914
0
LINE
8
F.Paste
6
CONTINUOUS
10
97.5015109999999936
20
-65.3802379999999914
11
97.5557039999999915
21
-65.4613439999999969
0
LINE
8
F.Paste
6
CONTINUOUS
10
97.5557039999999915
20
-65.4613439999999969
11
97.5747339999999923
21
-65.5570149999999927
0
LINE
8
F.Paste
6
CONTINUOUS
10
97.5747339999999923
20
-65.5570149999999927
11
97.5747339999999923
21
-66.4570149999999984
0
LINE
8
F.Paste
6
CONTINUOUS
10
97.5747339999999923
20
-66.4570149999999984
11
97.5557039999999915
21
-66.5526859999999942
0
LINE
8
F.Paste
6
CONTINUOUS
10
97.5557039999999915
20
-66.5526859999999942
11
97.5015109999999936
21
-66.6337919999999997
0
LINE
8
F.Paste
6
CONTINUOUS
10
97.5015109999999936
20
-66.6337919999999997
11
97.4204050000000024
21
-66.6879849999999976
0
LINE
8
F.Paste
6
CONTINUOUS
10
97.4204050000000024
20
-66.6879849999999976
11
97.3247339999999923
21
-66.7070149999999984
0
LINE
8
F.Paste
6
CONTINUOUS
10
97.3247339999999923
20
-66.7070149999999984
11
96.6247339999999895
21
-66.7070149999999984
0
LINE
8
F.Paste
6
CONTINUOUS
10
96.6247339999999895
20
-66.7070149999999984
11
96.5290629999999936
21
-66.6879849999999976
0
LINE
8
F.Paste
6
CONTINUOUS
10
96.5290629999999936
20
-66.6879849999999976
11
96.4479570000000024
21
-66.6337919999999997
0
LINE
8
F.Paste
6
CONTINUOUS
10
96.4479570000000024
20
-66.6337919999999997
11
96.3937639999999902
21
-66.5526859999999942
0
LINE
8
F.Paste
6
CONTINUOUS
10
96.3937639999999902
20
-66.5526859999999942
11
96.3747339999999895
21
-66.4570149999999984
0
LINE
8
F.Paste
6
CONTINUOUS
10
96.3747339999999895
20
-66.4570149999999984
11
96.3747339999999895
21
-65.5570149999999927
0
LINE
8
F.Paste
6
CONTINUOUS
10
96.3747339999999895
20
-65.5570149999999927
11
96.3937639999999902
21
-65.4613439999999969
0
LINE
8
F.Paste
6
CONTINUOUS
10
96.3937639999999902
20
-65.4613439999999969
11
96.4479570000000024
21
-65.3802379999999914
0
LINE
8
F.Paste
6
CONTINUOUS
10
96.4479570000000024
20
-65.3802379999999914
11
96.5290629999999936
21
-65.3260449999999935
0
LINE
8
F.Paste
6
CONTINUOUS
10
96.5290629999999936
20
-65.3260449999999935
11
96.6247339999999895
21
-65.3070149999999927
0
LINE
8
F.Paste
6
CONTINUOUS
10
96.6247339999999895
20
-65.3070149999999927
11
97.3247339999999923
21
-65.3070149999999927
0
LINE
8
F.Paste
6
CONTINUOUS
10
97.3247339999999923
20
-65.3070149999999927
11
97.4204050000000024
21
-65.3260449999999935
0
LINE
8
F.Paste
6
CONTINUOUS
10
99.4204050000000024
20
-65.3260449999999935
11
99.5015109999999936
21
-65.3802379999999914
0
LINE
8
F.Paste
6
CONTINUOUS
10
99.5015109999999936
20
-65.3802379999999914
11
99.5557039999999915
21
-65.4613439999999969
0
LINE
8
F.Paste
6
CONTINUOUS
10
99.5557039999999915
20
-65.4613439999999969
11
99.5747339999999923
21
-65.5570149999999927
0
LINE
8
F.Paste
6
CONTINUOUS
10
99.5747339999999923
20
-65.5570149999999927
11
99.5747339999999923
21
-66.4570149999999984
0
LINE
8
F.Paste
6
CONTINUOUS
10
99.5747339999999923
20
-66.4570149999999984
11
99.5557039999999915
21
-66.5526859999999942
0
LINE
8
F.Paste
6
CONTINUOUS
10
99.5557039999999915
20
-66.5526859999999942
11
99.5015109999999936
21
-66.6337919999999997
0
LINE
8
F.Paste
6
CONTINUOUS
10
99.5015109999999936
20
-66.6337919999999997
11
99.4204050000000024
21
-66.6879849999999976
0
LINE
8
F.Paste
6
CONTINUOUS
10
99.4204050000000024
20
-66.6879849999999976
11
99.3247339999999923
21
-66.7070149999999984
0
LINE
8
F.Paste
6
CONTINUOUS
10
99.3247339999999923
20
-66.7070149999999984
11
98.6247339999999895
21
-66.7070149999999984
0
LINE
8
F.Paste
6
CONTINUOUS
10
98.6247339999999895
20
-66.7070149999999984
11
98.5290629999999936
21
-66.6879849999999976
0
LINE
8
F.Paste
6
CONTINUOUS
10
98.5290629999999936
20
-66.6879849999999976
11
98.4479570000000024
21
-66.6337919999999997
0
LINE
8
F.Paste
6
CONTINUOUS
10
98.4479570000000024
20
-66.6337919999999997
11
98.3937639999999902
21
-66.5526859999999942
0
LINE
8
F.Paste
6
CONTINUOUS
10
98.3937639999999902
20
-66.5526859999999942
11
98.3747339999999895
21
-66.4570149999999984
0
LINE
8
F.Paste
6
CONTINUOUS
10
98.3747339999999895
20
-66.4570149999999984
11
98.3747339999999895
21
-65.5570149999999927
0
LINE
8
F.Paste
6
CONTINUOUS
10
98.3747339999999895
20
-65.5570149999999927
11
98.3937639999999902
21
-65.4613439999999969
0
LINE
8
F.Paste
6
CONTINUOUS
10
98.3937639999999902
20
-65.4613439999999969
11
98.4479570000000024
21
-65.3802379999999914
0
LINE
8
F.Paste
6
CONTINUOUS
10
98.4479570000000024
20
-65.3802379999999914
11
98.5290629999999936
21
-65.3260449999999935
0
LINE
8
F.Paste
6
CONTINUOUS
10
98.5290629999999936
20
-65.3260449999999935
11
98.6247339999999895
21
-65.3070149999999927
0
LINE
8
F.Paste
6
CONTINUOUS
10
98.6247339999999895
20
-65.3070149999999927
11
99.3247339999999923
21
-65.3070149999999927
0
LINE
8
F.Paste
6
CONTINUOUS
10
99.3247339999999923
20
-65.3070149999999927
11
99.4204050000000024
21
-65.3260449999999935
0
LINE
8
F.Paste
6
CONTINUOUS
10
107.6174439999999919
20
-65.2414780000000007
11
107.6790839999999889
21
-65.2826649999999944
0
LINE
8
F.Paste
6
CONTINUOUS
10
107.6790839999999889
20
-65.2826649999999944
11
107.7202709999999968
21
-65.3443049999999914
0
LINE
8
F.Paste
6
CONTINUOUS
10
107.7202709999999968
20
-65.3443049999999914
11
107.7347339999999889
21
-65.4170149999999921
0
LINE
8
F.Paste
6
CONTINUOUS
10
107.7347339999999889
20
-65.4170149999999921
11
107.7347339999999889
21
-65.7970150000000018
0
LINE
8
F.Paste
6
CONTINUOUS
10
107.7347339999999889
20
-65.7970150000000018
11
107.7202709999999968
21
-65.8697250000000025
0
LINE
8
F.Paste
6
CONTINUOUS
10
107.7202709999999968
20
-65.8697250000000025
11
107.6790839999999889
21
-65.9313649999999996
0
LINE
8
F.Paste
6
CONTINUOUS
10
107.6790839999999889
20
-65.9313649999999996
11
107.6174439999999919
21
-65.9725519999999932
0
LINE
8
F.Paste
6
CONTINUOUS
10
107.6174439999999919
20
-65.9725519999999932
11
107.5447339999999912
21
-65.9870149999999995
0
LINE
8
F.Paste
6
CONTINUOUS
10
107.5447339999999912
20
-65.9870149999999995
11
104.9047339999999906
21
-65.9870149999999995
0
LINE
8
F.Paste
6
CONTINUOUS
10
104.9047339999999906
20
-65.9870149999999995
11
104.8320239999999899
21
-65.9725519999999932
0
LINE
8
F.Paste
6
CONTINUOUS
10
104.8320239999999899
20
-65.9725519999999932
11
104.7703839999999929
21
-65.9313649999999996
0
LINE
8
F.Paste
6
CONTINUOUS
10
104.7703839999999929
20
-65.9313649999999996
11
104.7291969999999992
21
-65.8697250000000025
0
LINE
8
F.Paste
6
CONTINUOUS
10
104.7291969999999992
20
-65.8697250000000025
11
104.7147339999999929
21
-65.7970150000000018
0
LINE
8
F.Paste
6
CONTINUOUS
10
104.7147339999999929
20
-65.7970150000000018
11
104.7147339999999929
21
-65.4170149999999921
0
LINE
8
F.Paste
6
CONTINUOUS
10
104.7147339999999929
20
-65.4170149999999921
11
104.7291969999999992
21
-65.3443049999999914
0
LINE
8
F.Paste
6
CONTINUOUS
10
104.7291969999999992
20
-65.3443049999999914
11
104.7703839999999929
21
-65.2826649999999944
0
LINE
8
F.Paste
6
CONTINUOUS
10
104.7703839999999929
20
-65.2826649999999944
11
104.8320239999999899
21
-65.2414780000000007
0
LINE
8
F.Paste
6
CONTINUOUS
10
104.8320239999999899
20
-65.2414780000000007
11
104.9047339999999906
21
-65.2270149999999944
0
LINE
8
F.Paste
6
CONTINUOUS
10
104.9047339999999906
20
-65.2270149999999944
11
107.5447339999999912
21
-65.2270149999999944
0
LINE
8
F.Paste
6
CONTINUOUS
10
107.5447339999999912
20
-65.2270149999999944
11
107.6174439999999919
21
-65.2414780000000007
0
LINE
8
F.Paste
6
CONTINUOUS
10
107.6112710000000021
20
-63.9922389999999979
11
107.6761549999999943
21
-64.0355940000000032
0
LINE
8
F.Paste
6
CONTINUOUS
10
107.6761549999999943
20
-64.0355940000000032
11
107.7195099999999996
21
-64.1004779999999954
0
LINE
8
F.Paste
6
CONTINUOUS
10
107.7195099999999996
20
-64.1004779999999954
11
107.7347339999999889
21
-64.1770149999999973
0
LINE
8
F.Paste
6
CONTINUOUS
10
107.7347339999999889
20
-64.1770149999999973
11
107.7347339999999889
21
-64.5770150000000029
0
LINE
8
F.Paste
6
CONTINUOUS
10
107.7347339999999889
20
-64.5770150000000029
11
107.7195099999999996
21
-64.6535519999999906
0
LINE
8
F.Paste
6
CONTINUOUS
10
107.7195099999999996
20
-64.6535519999999906
11
107.6761549999999943
21
-64.718435999999997
0
LINE
8
F.Paste
6
CONTINUOUS
10
107.6761549999999943
20
-64.718435999999997
11
107.6112710000000021
21
-64.7617910000000023
0
LINE
8
F.Paste
6
CONTINUOUS
10
107.6112710000000021
20
-64.7617910000000023
11
107.5347340000000003
21
-64.7770149999999916
0
LINE
8
F.Paste
6
CONTINUOUS
10
107.5347340000000003
20
-64.7770149999999916
11
104.9147339999999957
21
-64.7770149999999916
0
LINE
8
F.Paste
6
CONTINUOUS
10
104.9147339999999957
20
-64.7770149999999916
11
104.8381969999999939
21
-64.7617910000000023
0
LINE
8
F.Paste
6
CONTINUOUS
10
104.8381969999999939
20
-64.7617910000000023
11
104.7733130000000017
21
-64.718435999999997
0
LINE
8
F.Paste
6
CONTINUOUS
10
104.7733130000000017
20
-64.718435999999997
11
104.7299579999999963
21
-64.6535519999999906
0
LINE
8
F.Paste
6
CONTINUOUS
10
104.7299579999999963
20
-64.6535519999999906
11
104.7147339999999929
21
-64.5770150000000029
0
LINE
8
F.Paste
6
CONTINUOUS
10
104.7147339999999929
20
-64.5770150000000029
11
104.7147339999999929
21
-64.1770149999999973
0
LINE
8
F.Paste
6
CONTINUOUS
10
104.7147339999999929
20
-64.1770149999999973
11
104.7299579999999963
21
-64.1004779999999954
0
LINE
8
F.Paste
6
CONTINUOUS
10
104.7299579999999963
20
-64.1004779999999954
11
104.7733130000000017
21
-64.0355940000000032
0
LINE
8
F.Paste
6
CONTINUOUS
10
104.7733130000000017
20
-64.0355940000000032
11
104.8381969999999939
21
-63.9922389999999979
0
LINE
8
F.Paste
6
CONTINUOUS
10
104.8381969999999939
20
-63.9922389999999979
11
104.9147339999999957
21
-63.9770149999999944
0
LINE
8
F.Paste
6
CONTINUOUS
10
104.9147339999999957
20
-63.9770149999999944
11
107.5347340000000003
21
-63.9770149999999944
0
LINE
8
F.Paste
6
CONTINUOUS
10
107.5347340000000003
20
-63.9770149999999944
11
107.6112710000000021
21
-63.9922389999999979
0
LINE
8
F.Paste
6
CONTINUOUS
10
107.5865229999999997
20
-62.2617199999999968
11
107.7252099999999899
21
-62.2988809999999944
0
LINE
8
F.Paste
6
CONTINUOUS
10
107.7252099999999899
20
-62.2988809999999944
11
107.8495530000000002
21
-62.3706709999999944
0
LINE
8
F.Paste
6
CONTINUOUS
10
107.8495530000000002
20
-62.3706709999999944
11
107.9510779999999954
21
-62.4721959999999967
0
LINE
8
F.Paste
6
CONTINUOUS
10
107.9510779999999954
20
-62.4721959999999967
11
108.0228679999999883
21
-62.5965389999999999
0
LINE
8
F.Paste
6
CONTINUOUS
10
108.0228679999999883
20
-62.5965389999999999
11
108.0600290000000001
21
-62.7352259999999973
0
LINE
8
F.Paste
6
CONTINUOUS
10
108.0600290000000001
20
-62.7352259999999973
11
108.0600290000000001
21
-62.8788039999999953
0
LINE
8
F.Paste
6
CONTINUOUS
10
108.0600290000000001
20
-62.8788039999999953
11
108.0228679999999883
21
-63.0174909999999997
0
LINE
8
F.Paste
6
CONTINUOUS
10
108.0228679999999883
20
-63.0174909999999997
11
107.9510779999999954
21
-63.1418339999999958
0
LINE
8
F.Paste
6
CONTINUOUS
10
107.9510779999999954
20
-63.1418339999999958
11
107.8495530000000002
21
-63.2433589999999981
0
LINE
8
F.Paste
6
CONTINUOUS
10
107.8495530000000002
20
-63.2433589999999981
11
107.7252099999999899
21
-63.3151489999999981
0
LINE
8
F.Paste
6
CONTINUOUS
10
107.7252099999999899
20
-63.3151489999999981
11
107.5865229999999997
21
-63.3523099999999957
0
LINE
8
F.Paste
6
CONTINUOUS
10
107.5865229999999997
20
-63.3523099999999957
11
107.51473399999999
21
-63.357014999999997
0
LINE
8
F.Paste
6
CONTINUOUS
10
107.51473399999999
20
-63.357014999999997
11
106.9147339999999957
21
-63.357014999999997
0
LINE
8
F.Paste
6
CONTINUOUS
10
106.9147339999999957
20
-63.357014999999997
11
106.8429450000000003
21
-63.3523099999999957
0
LINE
8
F.Paste
6
CONTINUOUS
10
106.8429450000000003
20
-63.3523099999999957
11
106.7042579999999958
21
-63.3151489999999981
0
LINE
8
F.Paste
6
CONTINUOUS
10
106.7042579999999958
20
-63.3151489999999981
11
106.5799149999999997
21
-63.2433589999999981
0
LINE
8
F.Paste
6
CONTINUOUS
10
106.5799149999999997
20
-63.2433589999999981
11
106.4783899999999903
21
-63.1418339999999958
0
LINE
8
F.Paste
6
CONTINUOUS
10
106.4783899999999903
20
-63.1418339999999958
11
106.4065999999999974
21
-63.0174909999999997
0
LINE
8
F.Paste
6
CONTINUOUS
10
106.4065999999999974
20
-63.0174909999999997
11
106.3694389999999999
21
-62.8788039999999953
0
LINE
8
F.Paste
6
CONTINUOUS
10
106.3694389999999999
20
-62.8788039999999953
11
106.3694389999999999
21
-62.7352259999999973
0
LINE
8
F.Paste
6
CONTINUOUS
10
106.3694389999999999
20
-62.7352259999999973
11
106.4065999999999974
21
-62.5965389999999999
0
LINE
8
F.Paste
6
CONTINUOUS
10
106.4065999999999974
20
-62.5965389999999999
11
106.4783899999999903
21
-62.4721959999999967
0
LINE
8
F.Paste
6
CONTINUOUS
10
106.4783899999999903
20
-62.4721959999999967
11
106.5799149999999997
21
-62.3706709999999944
0
LINE
8
F.Paste
6
CONTINUOUS
10
106.5799149999999997
20
-62.3706709999999944
11
106.7042579999999958
21
-62.2988809999999944
0
LINE
8
F.Paste
6
CONTINUOUS
10
106.7042579999999958
20
-62.2988809999999944
11
106.8429450000000003
21
-62.2617199999999968
0
LINE
8
F.Paste
6
CONTINUOUS
10
106.8429450000000003
20
-62.2617199999999968
11
106.9147339999999957
21
-62.2570149999999956
0
LINE
8
F.Paste
6
CONTINUOUS
10
106.9147339999999957
20
-62.2570149999999956
11
107.51473399999999
21
-62.2570149999999956
0
LINE
8
F.Paste
6
CONTINUOUS
10
107.51473399999999
20
-62.2570149999999956
11
107.5865229999999997
21
-62.2617199999999968
0
LINE
8
F.Paste
6
CONTINUOUS
10
111.3865229999999968
20
-62.2617199999999968
11
111.5252100000000013
21
-62.2988809999999944
0
LINE
8
F.Paste
6
CONTINUOUS
10
111.5252100000000013
20
-62.2988809999999944
11
111.6495529999999974
21
-62.3706709999999944
0
LINE
8
F.Paste
6
CONTINUOUS
10
111.6495529999999974
20
-62.3706709999999944
11
111.7510779999999926
21
-62.4721959999999967
0
LINE
8
F.Paste
6
CONTINUOUS
10
111.7510779999999926
20
-62.4721959999999967
11
111.8228679999999997
21
-62.5965389999999999
0
LINE
8
F.Paste
6
CONTINUOUS
10
111.8228679999999997
20
-62.5965389999999999
11
111.8600289999999973
21
-62.7352259999999973
0
LINE
8
F.Paste
6
CONTINUOUS
10
111.8600289999999973
20
-62.7352259999999973
11
111.8600289999999973
21
-62.8788039999999953
0
LINE
8
F.Paste
6
CONTINUOUS
10
111.8600289999999973
20
-62.8788039999999953
11
111.8228679999999997
21
-63.0174909999999997
0
LINE
8
F.Paste
6
CONTINUOUS
10
111.8228679999999997
20
-63.0174909999999997
11
111.7510779999999926
21
-63.1418339999999958
0
LINE
8
F.Paste
6
CONTINUOUS
10
111.7510779999999926
20
-63.1418339999999958
11
111.6495529999999974
21
-63.2433589999999981
0
LINE
8
F.Paste
6
CONTINUOUS
10
111.6495529999999974
20
-63.2433589999999981
11
111.5252100000000013
21
-63.3151489999999981
0
LINE
8
F.Paste
6
CONTINUOUS
10
111.5252100000000013
20
-63.3151489999999981
11
111.3865229999999968
21
-63.3523099999999957
0
LINE
8
F.Paste
6
CONTINUOUS
10
111.3865229999999968
20
-63.3523099999999957
11
111.3147340000000014
21
-63.357014999999997
0
LINE
8
F.Paste
6
CONTINUOUS
10
111.3147340000000014
20
-63.357014999999997
11
110.7147339999999929
21
-63.357014999999997
0
LINE
8
F.Paste
6
CONTINUOUS
10
110.7147339999999929
20
-63.357014999999997
11
110.6429449999999974
21
-63.3523099999999957
0
LINE
8
F.Paste
6
CONTINUOUS
10
110.6429449999999974
20
-63.3523099999999957
11
110.504257999999993
21
-63.3151489999999981
0
LINE
8
F.Paste
6
CONTINUOUS
10
110.504257999999993
20
-63.3151489999999981
11
110.3799149999999969
21
-63.2433589999999981
0
LINE
8
F.Paste
6
CONTINUOUS
10
110.3799149999999969
20
-63.2433589999999981
11
110.2783900000000017
21
-63.1418339999999958
0
LINE
8
F.Paste
6
CONTINUOUS
10
110.2783900000000017
20
-63.1418339999999958
11
110.2065999999999946
21
-63.0174909999999997
0
LINE
8
F.Paste
6
CONTINUOUS
10
110.2065999999999946
20
-63.0174909999999997
11
110.169438999999997
21
-62.8788039999999953
0
LINE
8
F.Paste
6
CONTINUOUS
10
110.169438999999997
20
-62.8788039999999953
11
110.169438999999997
21
-62.7352259999999973
0
LINE
8
F.Paste
6
CONTINUOUS
10
110.169438999999997
20
-62.7352259999999973
11
110.2065999999999946
21
-62.5965389999999999
0
LINE
8
F.Paste
6
CONTINUOUS
10
110.2065999999999946
20
-62.5965389999999999
11
110.2783900000000017
21
-62.4721959999999967
0
LINE
8
F.Paste
6
CONTINUOUS
10
110.2783900000000017
20
-62.4721959999999967
11
110.3799149999999969
21
-62.3706709999999944
0
LINE
8
F.Paste
6
CONTINUOUS
10
110.3799149999999969
20
-62.3706709999999944
11
110.504257999999993
21
-62.2988809999999944
0
LINE
8
F.Paste
6
CONTINUOUS
10
110.504257999999993
20
-62.2988809999999944
11
110.6429449999999974
21
-62.2617199999999968
0
LINE
8
F.Paste
6
CONTINUOUS
10
110.6429449999999974
20
-62.2617199999999968
11
110.7147339999999929
21
-62.2570149999999956
0
LINE
8
F.Paste
6
CONTINUOUS
10
110.7147339999999929
20
-62.2570149999999956
11
111.3147340000000014
21
-62.2570149999999956
0
LINE
8
F.Paste
6
CONTINUOUS
10
111.3147340000000014
20
-62.2570149999999956
11
111.3865229999999968
21
-62.2617199999999968
0
LINE
8
F.Paste
6
CONTINUOUS
10
111.6683519999999987
20
-57.5115649999999974
11
111.7718610000000012
21
-57.5621679999999998
0
LINE
8
F.Paste
6
CONTINUOUS
10
111.7718610000000012
20
-57.5621679999999998
11
111.8533309999999972
21
-57.6436379999999957
0
LINE
8
F.Paste
6
CONTINUOUS
10
111.8533309999999972
20
-57.6436379999999957
11
111.9039339999999925
21
-57.7471469999999982
0
LINE
8
F.Paste
6
CONTINUOUS
10
111.9039339999999925
20
-57.7471469999999982
11
111.9184839999999923
21
-57.847014999999999
0
LINE
8
F.Paste
6
CONTINUOUS
10
111.9184839999999923
20
-57.847014999999999
11
111.9184839999999923
21
-58.5470149999999947
0
LINE
8
F.Paste
6
CONTINUOUS
10
111.9184839999999923
20
-58.5470149999999947
11
111.9039339999999925
21
-58.6468829999999954
0
LINE
8
F.Paste
6
CONTINUOUS
10
111.9039339999999925
20
-58.6468829999999954
11
111.8533309999999972
21
-58.7503919999999979
0
LINE
8
F.Paste
6
CONTINUOUS
10
111.8533309999999972
20
-58.7503919999999979
11
111.7718610000000012
21
-58.8318619999999939
0
LINE
8
F.Paste
6
CONTINUOUS
10
111.7718610000000012
20
-58.8318619999999939
11
111.6683519999999987
21
-58.8824649999999963
0
LINE
8
F.Paste
6
CONTINUOUS
10
111.6683519999999987
20
-58.8824649999999963
11
111.568483999999998
21
-58.8970149999999961
0
LINE
8
F.Paste
6
CONTINUOUS
10
111.568483999999998
20
-58.8970149999999961
11
106.2684840000000008
21
-58.8970149999999961
0
LINE
8
F.Paste
6
CONTINUOUS
10
106.2684840000000008
20
-58.8970149999999961
11
106.1686160000000001
21
-58.8824649999999963
0
LINE
8
F.Paste
6
CONTINUOUS
10
106.1686160000000001
20
-58.8824649999999963
11
106.0651069999999976
21
-58.8318619999999939
0
LINE
8
F.Paste
6
CONTINUOUS
10
106.0651069999999976
20
-58.8318619999999939
11
105.9836370000000016
21
-58.7503919999999979
0
LINE
8
F.Paste
6
CONTINUOUS
10
105.9836370000000016
20
-58.7503919999999979
11
105.9330339999999921
21
-58.6468829999999954
0
LINE
8
F.Paste
6
CONTINUOUS
10
105.9330339999999921
20
-58.6468829999999954
11
105.9184839999999923
21
-58.5470149999999947
0
LINE
8
F.Paste
6
CONTINUOUS
10
105.9184839999999923
20
-58.5470149999999947
11
105.9184839999999923
21
-57.847014999999999
0
LINE
8
F.Paste
6
CONTINUOUS
10
105.9184839999999923
20
-57.847014999999999
11
105.9330339999999921
21
-57.7471469999999982
0
LINE
8
F.Paste
6
CONTINUOUS
10
105.9330339999999921
20
-57.7471469999999982
11
105.9836370000000016
21
-57.6436379999999957
0
LINE
8
F.Paste
6
CONTINUOUS
10
105.9836370000000016
20
-57.6436379999999957
11
106.0651069999999976
21
-57.5621679999999998
0
LINE
8
F.Paste
6
CONTINUOUS
10
106.0651069999999976
20
-57.5621679999999998
11
106.1686160000000001
21
-57.5115649999999974
0
LINE
8
F.Paste
6
CONTINUOUS
10
106.1686160000000001
20
-57.5115649999999974
11
106.2684840000000008
21
-57.4970149999999975
0
LINE
8
F.Paste
6
CONTINUOUS
10
106.2684840000000008
20
-57.4970149999999975
11
111.568483999999998
21
-57.4970149999999975
0
LINE
8
F.Paste
6
CONTINUOUS
10
111.568483999999998
20
-57.4970149999999975
11
111.6683519999999987
21
-57.5115649999999974
0
CIRCLE
8
F.Paste
10
107.5447339999999912
20
-55.6970150000000004
40
0.175
0
CIRCLE
8
F.Paste
10
92.3047339999999963
20
-55.6970150000000004
40
0.175
0
LINE
8
F.Paste
6
CONTINUOUS
10
106.9147339999999957
20
-71.7470149999999904
11
107.51473399999999
21
-71.7470149999999904
0
ARC
8
F.Paste
10
107.51473399999999
20
-71.4470149999999933
40
0.3
50
-90.00000000
51
90.00000000
0
LINE
8
F.Paste
6
CONTINUOUS
10
107.51473399999999
20
-71.1470149999999961
11
106.9147339999999957
21
-71.1470149999999961
0
ARC
8
F.Paste
10
106.9147339999999957
20
-71.4470149999999933
40
0.3
50
90.00000000
51
270.00000000
0
LINE
8
F.Paste
6
CONTINUOUS
10
110.7147339999999929
20
-71.7470149999999904
11
111.3147340000000014
21
-71.7470149999999904
0
ARC
8
F.Paste
10
111.3147340000000014
20
-71.4470149999999933
40
0.3
50
-90.00000000
51
90.00000000
0
LINE
8
F.Paste
6
CONTINUOUS
10
111.3147340000000014
20
-71.1470149999999961
11
110.7147339999999929
21
-71.1470149999999961
0
ARC
8
F.Paste
10
110.7147339999999929
20
-71.4470149999999933
40
0.3
50
90.00000000
51
270.00000000
0
LINE
8
F.Paste
6
CONTINUOUS
10
106.9147339999999957
20
-63.107014999999997
11
107.51473399999999
21
-63.107014999999997
0
ARC
8
F.Paste
10
107.51473399999999
20
-62.8070149999999998
40
0.3
50
-90.00000000
51
90.00000000
0
LINE
8
F.Paste
6
CONTINUOUS
10
107.51473399999999
20
-62.5070149999999956
11
106.9147339999999957
21
-62.5070149999999956
0
ARC
8
F.Paste
10
106.9147339999999957
20
-62.8070149999999998
40
0.3
50
90.00000000
51
270.00000000
0
LINE
8
F.Paste
6
CONTINUOUS
10
110.7147339999999929
20
-63.107014999999997
11
111.3147340000000014
21
-63.107014999999997
0
ARC
8
F.Paste
10
111.3147340000000014
20
-62.8070149999999998
40
0.3
50
-90.00000000
51
90.00000000
0
LINE
8
F.Paste
6
CONTINUOUS
10
111.3147340000000014
20
-62.5070149999999956
11
110.7147339999999929
21
-62.5070149999999956
0
ARC
8
F.Paste
10
110.7147339999999929
20
-62.8070149999999998
40
0.3
50
90.00000000
51
270.00000000
  0
ENDSEC
  0
EOF
